Armada-Regular.ufo
<glyph name="exclam" format="1">
  <advance width="255"/>
  <unicode hex="0021"/>
  <outline>
    <contour>
      <point x="171" y="205" type="line"/>
      <point x="84" y="205" type="line"/>
      <point x="84" y="720" type="line"/>
      <point x="171" y="720" type="line"/>
    </contour>
    <contour>
      <point x="175" y="0" type="line"/>
      <point x="80" y="0" type="line"/>
      <point x="80" y="110" type="line"/>
      <point x="175" y="110" type="line"/>
    </contour>
  </outline>
</glyph>
<glyph name="quotedbl" format="1">
  <advance width="500"/>
  <unicode hex="0022"/>
  <outline>
    <contour>
      <point x="411" y="480" type="line"/>
      <point x="319" y="480" type="line"/>
      <point x="319" y="720" type="line"/>
      <point x="411" y="720" type="line"/>
    </contour>
    <contour>
      <point x="181" y="480" type="line"/>
      <point x="89" y="480" type="line"/>
      <point x="89" y="720" type="line"/>
      <point x="181" y="720" type="line"/>
    </contour>
  </outline>
</glyph>
<glyph name="numbersign" format="1">
  <advance width="800"/>
  <unicode hex="0023"/>
  <outline>
    <contour>
      <point x="730" y="180" type="line"/>
      <point x="585" y="180" type="line"/>
      <point x="585" y="0" type="line"/>
      <point x="499" y="0" type="line"/>
      <point x="499" y="180" type="line"/>
      <point x="302" y="180" type="line"/>
      <point x="302" y="0" type="line"/>
      <point x="215" y="0" type="line"/>
      <point x="215" y="180" type="line"/>
      <point x="70" y="180" type="line"/>
      <point x="70" y="262" type="line"/>
      <point x="215" y="262" type="line"/>
      <point x="215" y="464" type="line"/>
      <point x="70" y="464" type="line"/>
      <point x="70" y="545" type="line"/>
      <point x="215" y="545" type="line"/>
      <point x="215" y="720" type="line"/>
      <point x="302" y="720" type="line"/>
      <point x="302" y="545" type="line"/>
      <point x="499" y="545" type="line"/>
      <point x="499" y="720" type="line"/>
      <point x="585" y="720" type="line"/>
      <point x="585" y="545" type="line"/>
      <point x="730" y="545" type="line"/>
      <point x="730" y="464" type="line"/>
      <point x="585" y="464" type="line"/>
      <point x="585" y="262" type="line"/>
      <point x="730" y="262" type="line"/>
    </contour>
    <contour>
      <point x="499" y="262" type="line"/>
      <point x="499" y="464" type="line"/>
      <point x="302" y="464" type="line"/>
      <point x="302" y="262" type="line"/>
    </contour>
  </outline>
</glyph>
<glyph name="dollar" format="1">
  <advance width="685"/>
  <unicode hex="0024"/>
  <outline>
    <contour>
      <point x="615" y="69" type="line"/>
      <point x="549" y="21"/>
      <point x="473" y="-2"/>
      <point x="395" y="-8" type="curve"/>
      <point x="395" y="-125" type="line"/>
      <point x="305" y="-125" type="line"/>
      <point x="305" y="-8" type="line"/>
      <point x="227" y="-2"/>
      <point x="152" y="21"/>
      <point x="85" y="69" type="curve"/>
      <point x="85" y="215" type="line"/>
      <point x="175" y="215" type="line"/>
      <point x="175" y="120" type="line"/>
      <point x="226" y="89"/>
      <point x="278" y="76"/>
      <point x="350" y="76" type="curve" smooth="yes"/>
      <point x="422" y="76"/>
      <point x="475" y="89"/>
      <point x="525" y="120" type="curve"/>
      <point x="525" y="237" type="line"/>
      <point x="88" y="411" type="line"/>
      <point x="88" y="651" type="line"/>
      <point x="154" y="699"/>
      <point x="228" y="722"/>
      <point x="305" y="728" type="curve"/>
      <point x="305" y="820" type="line"/>
      <point x="395" y="820" type="line"/>
      <point x="395" y="728" type="line"/>
      <point x="472" y="722"/>
      <point x="546" y="699"/>
      <point x="613" y="651" type="curve"/>
      <point x="613" y="505" type="line"/>
      <point x="523" y="505" type="line"/>
      <point x="523" y="600" type="line"/>
      <point x="472" y="631"/>
      <point x="422" y="644"/>
      <point x="350" y="644" type="curve" smooth="yes"/>
      <point x="278" y="644"/>
      <point x="228" y="631"/>
      <point x="178" y="600" type="curve"/>
      <point x="178" y="471" type="line"/>
      <point x="615" y="297" type="line"/>
    </contour>
  </outline>
</glyph>
<glyph name="percent" format="1">
  <advance width="1165"/>
  <unicode hex="0025"/>
  <outline>
    <contour>
      <point x="1083" y="67" type="line"/>
      <point x="1040" y="22"/>
      <point x="967" y="-10"/>
      <point x="888" y="-10" type="curve" smooth="yes"/>
      <point x="809" y="-10"/>
      <point x="736" y="22"/>
      <point x="693" y="67" type="curve"/>
      <point x="693" y="332" type="line"/>
      <point x="736" y="377"/>
      <point x="809" y="409"/>
      <point x="888" y="409" type="curve" smooth="yes"/>
      <point x="967" y="409"/>
      <point x="1040" y="377"/>
      <point x="1083" y="332" type="curve"/>
    </contour>
    <contour>
      <point x="826" y="720" type="line"/>
      <point x="430" y="0" type="line"/>
      <point x="339" y="0" type="line"/>
      <point x="736" y="720" type="line"/>
    </contour>
    <contour>
      <point x="473" y="388" type="line"/>
      <point x="430" y="343"/>
      <point x="357" y="311"/>
      <point x="278" y="311" type="curve" smooth="yes"/>
      <point x="199" y="311"/>
      <point x="126" y="343"/>
      <point x="83" y="388" type="curve"/>
      <point x="83" y="653" type="line"/>
      <point x="126" y="698"/>
      <point x="199" y="730"/>
      <point x="278" y="730" type="curve" smooth="yes"/>
      <point x="357" y="730"/>
      <point x="430" y="698"/>
      <point x="473" y="653" type="curve"/>
    </contour>
    <contour>
      <point x="1003" y="102" type="curve"/>
      <point x="1003" y="297" type="line"/>
      <point x="973" y="324"/>
      <point x="935" y="337"/>
      <point x="888" y="337" type="curve" smooth="yes"/>
      <point x="841" y="337"/>
      <point x="802" y="324"/>
      <point x="772" y="297" type="curve"/>
      <point x="772" y="102" type="line"/>
      <point x="802" y="75"/>
      <point x="841" y="62"/>
      <point x="888" y="62" type="curve" smooth="yes"/>
      <point x="935" y="62"/>
      <point x="973" y="75"/>
    </contour>
    <contour>
      <point x="393" y="423" type="curve"/>
      <point x="393" y="618" type="line"/>
      <point x="363" y="645"/>
      <point x="325" y="658"/>
      <point x="278" y="658" type="curve" smooth="yes"/>
      <point x="231" y="658"/>
      <point x="192" y="645"/>
      <point x="162" y="618" type="curve"/>
      <point x="162" y="423" type="line"/>
      <point x="192" y="396"/>
      <point x="231" y="383"/>
      <point x="278" y="383" type="curve" smooth="yes"/>
      <point x="325" y="383"/>
      <point x="363" y="396"/>
    </contour>
  </outline>
</glyph>
<glyph name="ampersand" format="1">
  <advance width="772"/>
  <unicode hex="0026"/>
  <outline>
    <contour>
      <point x="735" y="332" type="line"/>
      <point x="653" y="332" type="line"/>
      <point x="653" y="66" type="line"/>
      <point x="577" y="10"/>
      <point x="491" y="-10"/>
      <point x="365" y="-10" type="curve" smooth="yes"/>
      <point x="253" y="-10"/>
      <point x="140" y="25"/>
      <point x="80" y="96" type="curve"/>
      <point x="80" y="291" type="line"/>
      <point x="111" y="328"/>
      <point x="170" y="365"/>
      <point x="226" y="371" type="curve"/>
      <point x="169" y="386"/>
      <point x="124" y="413"/>
      <point x="90" y="450" type="curve"/>
      <point x="90" y="624" type="line"/>
      <point x="150" y="695"/>
      <point x="258" y="730"/>
      <point x="370" y="730" type="curve" smooth="yes"/>
      <point x="496" y="730"/>
      <point x="579" y="710"/>
      <point x="655" y="654" type="curve"/>
      <point x="655" y="505" type="line"/>
      <point x="565" y="505" type="line"/>
      <point x="565" y="606" type="line"/>
      <point x="514" y="638"/>
      <point x="455" y="646"/>
      <point x="370" y="646" type="curve" smooth="yes"/>
      <point x="305" y="646"/>
      <point x="220" y="630"/>
      <point x="180" y="586" type="curve"/>
      <point x="180" y="478" type="line"/>
      <point x="223" y="432"/>
      <point x="279" y="410"/>
      <point x="385" y="410" type="curve" smooth="yes"/>
      <point x="735" y="410" type="line"/>
    </contour>
    <contour>
      <point x="565" y="114" type="curve"/>
      <point x="565" y="332" type="line"/>
      <point x="385" y="332" type="line" smooth="yes"/>
      <point x="274" y="332"/>
      <point x="218" y="314"/>
      <point x="170" y="264" type="curve"/>
      <point x="170" y="134" type="line"/>
      <point x="210" y="90"/>
      <point x="300" y="74"/>
      <point x="365" y="74" type="curve" smooth="yes"/>
      <point x="450" y="74"/>
      <point x="514" y="82"/>
    </contour>
  </outline>
</glyph>
<glyph name="quotesingle" format="1">
  <advance width="270"/>
  <unicode hex="0027"/>
  <outline>
    <contour>
      <point x="181" y="480" type="line"/>
      <point x="89" y="480" type="line"/>
      <point x="89" y="720" type="line"/>
      <point x="181" y="720" type="line"/>
    </contour>
  </outline>
</glyph>
<glyph name="parenleft" format="1">
  <advance width="400"/>
  <unicode hex="0028"/>
  <outline>
    <contour>
      <point x="325" y="-10" type="line"/>
      <point x="232" y="-10"/>
      <point x="144" y="39"/>
      <point x="95" y="95" type="curve"/>
      <point x="95" y="625" type="line"/>
      <point x="144" y="681"/>
      <point x="232" y="730"/>
      <point x="325" y="730" type="curve"/>
      <point x="325" y="642" type="line"/>
      <point x="274" y="640"/>
      <point x="216" y="613"/>
      <point x="185" y="582" type="curve"/>
      <point x="185" y="139" type="line"/>
      <point x="216" y="107"/>
      <point x="274" y="80"/>
      <point x="325" y="78" type="curve"/>
    </contour>
  </outline>
</glyph>
<glyph name="parenright" format="1">
  <advance width="400"/>
  <unicode hex="0029"/>
  <outline>
    <contour>
      <point x="305" y="95" type="line"/>
      <point x="256" y="39"/>
      <point x="168" y="-10"/>
      <point x="75" y="-10" type="curve"/>
      <point x="75" y="78" type="line"/>
      <point x="127" y="80"/>
      <point x="185" y="107"/>
      <point x="215" y="139" type="curve"/>
      <point x="215" y="582" type="line"/>
      <point x="185" y="613"/>
      <point x="127" y="640"/>
      <point x="75" y="642" type="curve"/>
      <point x="75" y="730" type="line"/>
      <point x="168" y="730"/>
      <point x="256" y="681"/>
      <point x="305" y="625" type="curve"/>
    </contour>
  </outline>
</glyph>
<glyph name="asterisk" format="1">
  <advance width="635"/>
  <unicode hex="002A"/>
  <outline>
    <contour>
      <point x="545" y="230" type="line"/>
      <point x="460" y="230" type="line"/>
      <point x="460" y="337" type="line"/>
      <point x="440" y="364"/>
      <point x="408" y="385"/>
      <point x="357" y="392" type="curve"/>
      <point x="357" y="140" type="line"/>
      <point x="278" y="140" type="line"/>
      <point x="278" y="392" type="line"/>
      <point x="227" y="385"/>
      <point x="196" y="364"/>
      <point x="175" y="337" type="curve"/>
      <point x="175" y="230" type="line"/>
      <point x="90" y="230" type="line"/>
      <point x="90" y="359" type="line"/>
      <point x="120" y="395"/>
      <point x="163" y="419"/>
      <point x="199" y="430" type="curve"/>
      <point x="163" y="441"/>
      <point x="120" y="466"/>
      <point x="90" y="501" type="curve"/>
      <point x="90" y="630" type="line"/>
      <point x="175" y="630" type="line"/>
      <point x="175" y="523" type="line"/>
      <point x="196" y="497"/>
      <point x="227" y="476"/>
      <point x="278" y="469" type="curve"/>
      <point x="278" y="720" type="line"/>
      <point x="357" y="720" type="line"/>
      <point x="357" y="469" type="line"/>
      <point x="408" y="476"/>
      <point x="440" y="497"/>
      <point x="460" y="523" type="curve"/>
      <point x="460" y="630" type="line"/>
      <point x="545" y="630" type="line"/>
      <point x="545" y="501" type="line"/>
      <point x="516" y="466"/>
      <point x="473" y="441"/>
      <point x="436" y="430" type="curve"/>
      <point x="473" y="419"/>
      <point x="516" y="395"/>
      <point x="545" y="359" type="curve"/>
    </contour>
  </outline>
</glyph>
<glyph name="plus" format="1">
  <advance width="550"/>
  <unicode hex="002B"/>
  <outline>
    <contour>
      <point x="500" y="330" type="line"/>
      <point x="318" y="330" type="line"/>
      <point x="318" y="148" type="line"/>
      <point x="233" y="148" type="line"/>
      <point x="233" y="330" type="line"/>
      <point x="50" y="330" type="line"/>
      <point x="50" y="412" type="line"/>
      <point x="233" y="412" type="line"/>
      <point x="233" y="594" type="line"/>
      <point x="318" y="594" type="line"/>
      <point x="318" y="412" type="line"/>
      <point x="500" y="412" type="line"/>
    </contour>
  </outline>
</glyph>
<glyph name="comma" format="1">
  <advance width="255"/>
  <unicode hex="002C"/>
  <outline>
    <contour>
      <point x="181" y="110" type="line"/>
      <point x="143" y="-100" type="line"/>
      <point x="55" y="-100" type="line"/>
      <point x="93" y="110" type="line"/>
    </contour>
  </outline>
</glyph>
<glyph name="hyphen" format="1">
  <advance width="400"/>
  <unicode hex="002D"/>
  <unicode hex="2010"/>
  <unicode hex="2011"/>
  <outline>
    <contour>
      <point x="350" y="253" type="line"/>
      <point x="50" y="253" type="line"/>
      <point x="50" y="339" type="line"/>
      <point x="350" y="339" type="line"/>
    </contour>
  </outline>
</glyph>
<glyph name="period" format="1">
  <advance width="255"/>
  <unicode hex="002E"/>
  <outline>
    <contour>
      <point x="175" y="0" type="line"/>
      <point x="80" y="0" type="line"/>
      <point x="80" y="110" type="line"/>
      <point x="175" y="110" type="line"/>
    </contour>
  </outline>
</glyph>
<glyph name="slash" format="1">
  <advance width="500"/>
  <unicode hex="002F"/>
  <outline>
    <contour>
      <point x="445" y="720" type="line"/>
      <point x="147" y="0" type="line"/>
      <point x="55" y="0" type="line"/>
      <point x="353" y="720" type="line"/>
    </contour>
  </outline>
</glyph>
<glyph name="zero" format="1">
  <advance width="770"/>
  <unicode hex="0030"/>
  <outline>
    <contour>
      <point x="675" y="100" type="line"/>
      <point x="602" y="29"/>
      <point x="490" y="-10"/>
      <point x="385" y="-10" type="curve" smooth="yes"/>
      <point x="281" y="-10"/>
      <point x="169" y="29"/>
      <point x="95" y="100" type="curve"/>
      <point x="95" y="621" type="line"/>
      <point x="169" y="690"/>
      <point x="281" y="730"/>
      <point x="385" y="730" type="curve" smooth="yes"/>
      <point x="490" y="730"/>
      <point x="602" y="690"/>
      <point x="675" y="621" type="curve"/>
    </contour>
    <contour>
      <point x="585" y="144" type="curve"/>
      <point x="585" y="576" type="line"/>
      <point x="539" y="619"/>
      <point x="473" y="644"/>
      <point x="385" y="644" type="curve" smooth="yes"/>
      <point x="297" y="644"/>
      <point x="232" y="619"/>
      <point x="185" y="576" type="curve"/>
      <point x="185" y="144" type="line"/>
      <point x="232" y="101"/>
      <point x="297" y="76"/>
      <point x="385" y="76" type="curve" smooth="yes"/>
      <point x="473" y="76"/>
      <point x="539" y="101"/>
    </contour>
  </outline>
</glyph>
<glyph name="one" format="1">
  <advance width="500"/>
  <unicode hex="0031"/>
  <outline>
    <contour>
      <point x="450" y="0" type="line"/>
      <point x="60" y="0" type="line"/>
      <point x="60" y="83" type="line"/>
      <point x="210" y="83" type="line"/>
      <point x="210" y="636" type="line"/>
      <point x="70" y="636" type="line"/>
      <point x="70" y="720" type="line"/>
      <point x="300" y="720" type="line"/>
      <point x="300" y="83" type="line"/>
      <point x="450" y="83" type="line"/>
    </contour>
  </outline>
</glyph>
<glyph name="two" format="1">
  <advance width="685"/>
  <unicode hex="0032"/>
  <outline>
    <contour>
      <point x="599" y="0" type="line"/>
      <point x="71" y="0" type="line"/>
      <point x="71" y="73" type="line"/>
      <point x="504" y="497" type="line"/>
      <point x="504" y="592" type="line"/>
      <point x="455" y="628"/>
      <point x="399" y="644"/>
      <point x="334" y="644" type="curve" smooth="yes"/>
      <point x="267" y="644"/>
      <point x="210" y="628"/>
      <point x="164" y="592" type="curve"/>
      <point x="164" y="505" type="line"/>
      <point x="74" y="505" type="line"/>
      <point x="74" y="642" type="line"/>
      <point x="154" y="705"/>
      <point x="247" y="730"/>
      <point x="334" y="730" type="curve" smooth="yes"/>
      <point x="425" y="730"/>
      <point x="516" y="703"/>
      <point x="594" y="642" type="curve"/>
      <point x="594" y="470" type="line"/>
      <point x="201" y="86" type="line"/>
      <point x="201" y="86" type="line"/>
      <point x="599" y="86" type="line"/>
    </contour>
  </outline>
</glyph>
<glyph name="three" format="1">
  <advance width="740"/>
  <unicode hex="0033"/>
  <outline>
    <contour>
      <point x="646" y="78" type="line"/>
      <point x="568" y="17"/>
      <point x="468" y="-10"/>
      <point x="368" y="-10" type="curve" smooth="yes"/>
      <point x="272" y="-10"/>
      <point x="170" y="15"/>
      <point x="90" y="78" type="curve"/>
      <point x="90" y="215" type="line"/>
      <point x="180" y="215" type="line"/>
      <point x="180" y="128" type="line"/>
      <point x="226" y="92"/>
      <point x="294" y="76"/>
      <point x="368" y="76" type="curve" smooth="yes"/>
      <point x="439" y="76"/>
      <point x="507" y="92"/>
      <point x="556" y="128" type="curve"/>
      <point x="556" y="255" type="line"/>
      <point x="508" y="305"/>
      <point x="457" y="323"/>
      <point x="346" y="323" type="curve" smooth="yes"/>
      <point x="272" y="323" type="line"/>
      <point x="272" y="407" type="line"/>
      <point x="346" y="407" type="line" smooth="yes"/>
      <point x="452" y="407"/>
      <point x="508" y="429"/>
      <point x="551" y="475" type="curve"/>
      <point x="551" y="592" type="line"/>
      <point x="502" y="628"/>
      <point x="437" y="644"/>
      <point x="366" y="644" type="curve" smooth="yes"/>
      <point x="292" y="644"/>
      <point x="227" y="628"/>
      <point x="181" y="592" type="curve"/>
      <point x="181" y="505" type="line"/>
      <point x="91" y="505" type="line"/>
      <point x="91" y="642" type="line"/>
      <point x="171" y="705"/>
      <point x="270" y="730"/>
      <point x="366" y="730" type="curve" smooth="yes"/>
      <point x="466" y="730"/>
      <point x="563" y="703"/>
      <point x="641" y="642" type="curve"/>
      <point x="641" y="444" type="line"/>
      <point x="607" y="407"/>
      <point x="562" y="380"/>
      <point x="505" y="365" type="curve"/>
      <point x="560" y="355"/>
      <point x="619" y="319"/>
      <point x="646" y="285" type="curve"/>
    </contour>
  </outline>
</glyph>
<glyph name="four" format="1">
  <advance width="745"/>
  <unicode hex="0034"/>
  <outline>
    <contour>
      <point x="635" y="0" type="line"/>
      <point x="545" y="0" type="line"/>
      <point x="545" y="235" type="line"/>
      <point x="100" y="235" type="line"/>
      <point x="100" y="720" type="line"/>
      <point x="190" y="720" type="line"/>
      <point x="190" y="321" type="line"/>
      <point x="545" y="321" type="line"/>
      <point x="545" y="720" type="line"/>
      <point x="635" y="720" type="line"/>
    </contour>
  </outline>
</glyph>
<glyph name="five" format="1">
  <advance width="705"/>
  <unicode hex="0035"/>
  <outline>
    <contour>
      <point x="624" y="69" type="line"/>
      <point x="546" y="14"/>
      <point x="461" y="-10"/>
      <point x="361" y="-10" type="curve" smooth="yes"/>
      <point x="265" y="-10"/>
      <point x="178" y="12"/>
      <point x="98" y="69" type="curve"/>
      <point x="98" y="215" type="line"/>
      <point x="188" y="215" type="line"/>
      <point x="188" y="119" type="line"/>
      <point x="234" y="87"/>
      <point x="287" y="76"/>
      <point x="361" y="76" type="curve" smooth="yes"/>
      <point x="432" y="76"/>
      <point x="485" y="87"/>
      <point x="534" y="119" type="curve"/>
      <point x="534" y="307" type="line"/>
      <point x="497" y="342"/>
      <point x="445" y="355"/>
      <point x="361" y="355" type="curve" smooth="yes"/>
      <point x="106" y="355" type="line"/>
      <point x="106" y="720" type="line"/>
      <point x="622" y="720" type="line"/>
      <point x="622" y="632" type="line"/>
      <point x="193" y="632" type="line"/>
      <point x="193" y="441" type="line"/>
      <point x="361" y="441" type="line" smooth="yes"/>
      <point x="473" y="441"/>
      <point x="559" y="418"/>
      <point x="624" y="352" type="curve"/>
    </contour>
  </outline>
</glyph>
<glyph name="six" format="1">
  <advance width="750"/>
  <unicode hex="0036"/>
  <outline>
    <contour>
      <point x="655" y="97" type="line"/>
      <point x="583" y="19"/>
      <point x="467" y="-10"/>
      <point x="375" y="-10" type="curve" smooth="yes"/>
      <point x="285" y="-10"/>
      <point x="169" y="19"/>
      <point x="95" y="97" type="curve"/>
      <point x="95" y="642" type="line"/>
      <point x="173" y="703"/>
      <point x="275" y="730"/>
      <point x="375" y="730" type="curve" smooth="yes"/>
      <point x="471" y="730"/>
      <point x="572" y="708"/>
      <point x="652" y="651" type="curve"/>
      <point x="652" y="505" type="line"/>
      <point x="562" y="505" type="line"/>
      <point x="562" y="599" type="line"/>
      <point x="518" y="629"/>
      <point x="453" y="644"/>
      <point x="375" y="644" type="curve" smooth="yes"/>
      <point x="304" y="644"/>
      <point x="234" y="628"/>
      <point x="185" y="592" type="curve"/>
      <point x="185" y="390" type="line"/>
      <point x="235" y="418"/>
      <point x="314" y="439"/>
      <point x="382" y="439" type="curve" smooth="yes"/>
      <point x="500" y="439"/>
      <point x="591" y="409"/>
      <point x="655" y="349" type="curve"/>
    </contour>
    <contour>
      <point x="565" y="134" type="curve"/>
      <point x="565" y="303" type="line"/>
      <point x="532" y="334"/>
      <point x="473" y="355"/>
      <point x="375" y="355" type="curve" smooth="yes"/>
      <point x="311" y="355"/>
      <point x="237" y="336"/>
      <point x="185" y="300" type="curve"/>
      <point x="185" y="134" type="line"/>
      <point x="229" y="94"/>
      <point x="307" y="77"/>
      <point x="375" y="76" type="curve" smooth="yes"/>
      <point x="443" y="75"/>
      <point x="521" y="94"/>
    </contour>
  </outline>
</glyph>
<glyph name="seven" format="1">
  <advance width="650"/>
  <unicode hex="0037"/>
  <outline>
    <contour>
      <point x="585" y="636" type="line"/>
      <point x="272" y="0" type="line"/>
      <point x="174" y="0" type="line"/>
      <point x="493" y="636" type="line"/>
      <point x="65" y="636" type="line"/>
      <point x="65" y="720" type="line"/>
      <point x="585" y="720" type="line"/>
    </contour>
  </outline>
</glyph>
<glyph name="eight" format="1">
  <advance width="752"/>
  <unicode hex="0038"/>
  <outline>
    <contour>
      <point x="657" y="96" type="line"/>
      <point x="592" y="26"/>
      <point x="483" y="-10"/>
      <point x="376" y="-10" type="curve" smooth="yes"/>
      <point x="270" y="-10"/>
      <point x="160" y="26"/>
      <point x="95" y="96" type="curve"/>
      <point x="95" y="286" type="line"/>
      <point x="123" y="323"/>
      <point x="190" y="360"/>
      <point x="241" y="366" type="curve"/>
      <point x="190" y="380"/>
      <point x="138" y="409"/>
      <point x="110" y="445" type="curve"/>
      <point x="110" y="626" type="line"/>
      <point x="181" y="701"/>
      <point x="284" y="730"/>
      <point x="376" y="730" type="curve" smooth="yes"/>
      <point x="469" y="730"/>
      <point x="572" y="701"/>
      <point x="642" y="626" type="curve"/>
      <point x="642" y="445" type="line"/>
      <point x="615" y="409"/>
      <point x="562" y="380"/>
      <point x="512" y="366" type="curve"/>
      <point x="562" y="360"/>
      <point x="629" y="323"/>
      <point x="657" y="286" type="curve"/>
    </contour>
    <contour>
      <point x="552" y="471" type="curve"/>
      <point x="552" y="591" type="line"/>
      <point x="508" y="630"/>
      <point x="439" y="646"/>
      <point x="376" y="646" type="curve" smooth="yes"/>
      <point x="313" y="646"/>
      <point x="243" y="630"/>
      <point x="200" y="591" type="curve"/>
      <point x="200" y="471" type="line"/>
      <point x="240" y="428"/>
      <point x="312" y="408"/>
      <point x="376" y="408" type="curve" smooth="yes"/>
      <point x="441" y="408"/>
      <point x="511" y="428"/>
    </contour>
    <contour>
      <point x="568" y="133" type="curve"/>
      <point x="568" y="260" type="line"/>
      <point x="524" y="303"/>
      <point x="446" y="324"/>
      <point x="376" y="324" type="curve" smooth="yes"/>
      <point x="307" y="324"/>
      <point x="229" y="303"/>
      <point x="186" y="260" type="curve"/>
      <point x="186" y="133" type="line"/>
      <point x="231" y="92"/>
      <point x="311" y="74"/>
      <point x="376" y="74" type="curve" smooth="yes"/>
      <point x="441" y="74"/>
      <point x="523" y="92"/>
    </contour>
  </outline>
</glyph>
<glyph name="nine" format="1">
  <advance width="750"/>
  <unicode hex="0039"/>
  <outline>
    <contour>
      <point x="655" y="78" type="line"/>
      <point x="577" y="17"/>
      <point x="475" y="-10"/>
      <point x="375" y="-10" type="curve" smooth="yes"/>
      <point x="279" y="-10"/>
      <point x="178" y="12"/>
      <point x="98" y="69" type="curve"/>
      <point x="98" y="215" type="line"/>
      <point x="188" y="215" type="line"/>
      <point x="188" y="121" type="line"/>
      <point x="232" y="91"/>
      <point x="297" y="76"/>
      <point x="375" y="76" type="curve" smooth="yes"/>
      <point x="446" y="76"/>
      <point x="516" y="92"/>
      <point x="565" y="128" type="curve"/>
      <point x="565" y="330" type="line"/>
      <point x="515" y="302"/>
      <point x="436" y="281"/>
      <point x="368" y="281" type="curve" smooth="yes"/>
      <point x="250" y="281"/>
      <point x="159" y="311"/>
      <point x="95" y="371" type="curve"/>
      <point x="95" y="623" type="line"/>
      <point x="167" y="701"/>
      <point x="283" y="730"/>
      <point x="375" y="730" type="curve" smooth="yes"/>
      <point x="465" y="730"/>
      <point x="581" y="701"/>
      <point x="655" y="623" type="curve"/>
    </contour>
    <contour>
      <point x="565" y="420" type="curve"/>
      <point x="565" y="586" type="line"/>
      <point x="521" y="626"/>
      <point x="443" y="643"/>
      <point x="375" y="644" type="curve" smooth="yes"/>
      <point x="307" y="645"/>
      <point x="229" y="626"/>
      <point x="185" y="586" type="curve"/>
      <point x="185" y="417" type="line"/>
      <point x="218" y="386"/>
      <point x="277" y="365"/>
      <point x="375" y="365" type="curve" smooth="yes"/>
      <point x="439" y="365"/>
      <point x="513" y="384"/>
    </contour>
  </outline>
</glyph>
<glyph name="colon" format="1">
  <advance width="255"/>
  <unicode hex="003A"/>
  <outline>
    <contour>
      <point x="175" y="370" type="line"/>
      <point x="80" y="370" type="line"/>
      <point x="80" y="480" type="line"/>
      <point x="175" y="480" type="line"/>
    </contour>
    <contour>
      <point x="175" y="0" type="line"/>
      <point x="80" y="0" type="line"/>
      <point x="80" y="110" type="line"/>
      <point x="175" y="110" type="line"/>
    </contour>
  </outline>
</glyph>
<glyph name="semicolon" format="1">
  <advance width="255"/>
  <unicode hex="003B"/>
  <outline>
    <contour>
      <point x="175" y="370" type="line"/>
      <point x="80" y="370" type="line"/>
      <point x="80" y="480" type="line"/>
      <point x="175" y="480" type="line"/>
    </contour>
    <contour>
      <point x="181" y="110" type="line"/>
      <point x="143" y="-100" type="line"/>
      <point x="55" y="-100" type="line"/>
      <point x="93" y="110" type="line"/>
    </contour>
  </outline>
</glyph>
<glyph name="less" format="1">
  <advance width="528"/>
  <unicode hex="003C"/>
  <outline>
    <contour>
      <point x="445" y="65" type="line"/>
      <point x="65" y="313" type="line"/>
      <point x="65" y="408" type="line"/>
      <point x="445" y="655" type="line"/>
      <point x="445" y="553" type="line"/>
      <point x="149" y="360" type="line"/>
      <point x="445" y="168" type="line"/>
    </contour>
  </outline>
</glyph>
<glyph name="equal" format="1">
  <advance width="490"/>
  <unicode hex="003D"/>
  <outline>
    <contour>
      <point x="420" y="433" type="line"/>
      <point x="70" y="433" type="line"/>
      <point x="70" y="519" type="line"/>
      <point x="420" y="519" type="line"/>
    </contour>
    <contour>
      <point x="420" y="223" type="line"/>
      <point x="70" y="223" type="line"/>
      <point x="70" y="309" type="line"/>
      <point x="420" y="309" type="line"/>
    </contour>
  </outline>
</glyph>
<glyph name="greater" format="1">
  <advance width="528"/>
  <unicode hex="003E"/>
  <outline>
    <contour>
      <point x="463" y="313" type="line"/>
      <point x="83" y="65" type="line"/>
      <point x="83" y="168" type="line"/>
      <point x="379" y="360" type="line"/>
      <point x="83" y="553" type="line"/>
      <point x="83" y="655" type="line"/>
      <point x="463" y="408" type="line"/>
    </contour>
  </outline>
</glyph>
<glyph name="question" format="1">
  <advance width="630"/>
  <unicode hex="003F"/>
  <outline>
    <contour>
      <point x="574" y="460" type="line"/>
      <point x="362" y="288" type="line"/>
      <point x="362" y="195" type="line"/>
      <point x="272" y="195" type="line"/>
      <point x="272" y="316" type="line"/>
      <point x="484" y="487" type="line"/>
      <point x="484" y="594" type="line"/>
      <point x="435" y="630"/>
      <point x="379" y="646"/>
      <point x="314" y="646" type="curve" smooth="yes"/>
      <point x="247" y="646"/>
      <point x="190" y="630"/>
      <point x="144" y="594" type="curve"/>
      <point x="144" y="505" type="line"/>
      <point x="54" y="505" type="line"/>
      <point x="54" y="642" type="line"/>
      <point x="134" y="705"/>
      <point x="227" y="730"/>
      <point x="314" y="730" type="curve" smooth="yes"/>
      <point x="405" y="730"/>
      <point x="496" y="703"/>
      <point x="574" y="642" type="curve"/>
    </contour>
    <contour>
      <point x="364" y="0" type="line"/>
      <point x="269" y="0" type="line"/>
      <point x="269" y="110" type="line"/>
      <point x="364" y="110" type="line"/>
    </contour>
  </outline>
</glyph>
<glyph name="at" format="1">
  <advance width="860"/>
  <unicode hex="0040"/>
  <outline>
    <contour>
      <point x="765" y="103" type="line"/>
      <point x="676" y="27"/>
      <point x="561" y="-10"/>
      <point x="430" y="-10" type="curve" smooth="yes"/>
      <point x="296" y="-10"/>
      <point x="183" y="28"/>
      <point x="95" y="103" type="curve"/>
      <point x="95" y="617" type="line"/>
      <point x="183" y="692"/>
      <point x="296" y="730"/>
      <point x="430" y="730" type="curve" smooth="yes"/>
      <point x="561" y="730"/>
      <point x="676" y="693"/>
      <point x="765" y="617" type="curve"/>
      <point x="765" y="323" type="line"/>
      <point x="585" y="323" type="line"/>
      <point x="585" y="228" type="line"/>
      <point x="553" y="201"/>
      <point x="501" y="180"/>
      <point x="430" y="180" type="curve" smooth="yes"/>
      <point x="362" y="180"/>
      <point x="309" y="199"/>
      <point x="275" y="228" type="curve"/>
      <point x="275" y="492" type="line"/>
      <point x="306" y="520"/>
      <point x="359" y="540"/>
      <point x="430" y="540" type="curve" smooth="yes"/>
      <point x="499" y="540"/>
      <point x="552" y="522"/>
      <point x="585" y="492" type="curve"/>
      <point x="585" y="397" type="line"/>
      <point x="680" y="397" type="line"/>
      <point x="680" y="576" type="line"/>
      <point x="622" y="621"/>
      <point x="532" y="649"/>
      <point x="430" y="649" type="curve" smooth="yes"/>
      <point x="330" y="649"/>
      <point x="240" y="623"/>
      <point x="180" y="576" type="curve"/>
      <point x="180" y="144" type="line"/>
      <point x="240" y="97"/>
      <point x="330" y="71"/>
      <point x="430" y="71" type="curve" smooth="yes"/>
      <point x="532" y="71"/>
      <point x="622" y="99"/>
      <point x="680" y="144" type="curve"/>
      <point x="680" y="225" type="line"/>
      <point x="765" y="225" type="line"/>
    </contour>
    <contour>
      <point x="509" y="269" type="curve"/>
      <point x="509" y="451" type="line"/>
      <point x="493" y="463"/>
      <point x="466" y="470"/>
      <point x="430" y="470" type="curve" smooth="yes"/>
      <point x="396" y="470"/>
      <point x="368" y="463"/>
      <point x="352" y="451" type="curve"/>
      <point x="352" y="269" type="line"/>
      <point x="367" y="257"/>
      <point x="396" y="251"/>
      <point x="430" y="251" type="curve" smooth="yes"/>
      <point x="465" y="251"/>
      <point x="490" y="257"/>
    </contour>
  </outline>
</glyph>
<glyph name="A" format="1">
  <advance width="750"/>
  <unicode hex="0041"/>
  <outline>
    <contour>
      <point x="650" y="0" type="line"/>
      <point x="560" y="0" type="line"/>
      <point x="560" y="268" type="line"/>
      <point x="190" y="268" type="line"/>
      <point x="190" y="0" type="line"/>
      <point x="100" y="0" type="line"/>
      <point x="100" y="621" type="line"/>
      <point x="166" y="690"/>
      <point x="271" y="730"/>
      <point x="375" y="730" type="curve" smooth="yes"/>
      <point x="480" y="730"/>
      <point x="585" y="690"/>
      <point x="650" y="621" type="curve"/>
    </contour>
    <contour>
      <point x="560" y="354" type="line"/>
      <point x="560" y="578" type="line"/>
      <point x="512" y="622"/>
      <point x="445" y="644"/>
      <point x="375" y="644" type="curve" smooth="yes"/>
      <point x="305" y="644"/>
      <point x="239" y="622"/>
      <point x="190" y="578" type="curve"/>
      <point x="190" y="354" type="line"/>
    </contour>
  </outline>
</glyph>
<glyph name="B" format="1">
  <advance width="733"/>
  <unicode hex="0042"/>
  <outline>
    <contour>
      <point x="653" y="107" type="line"/>
      <point x="593" y="37"/>
      <point x="505" y="0"/>
      <point x="353" y="0" type="curve" smooth="yes"/>
      <point x="110" y="0" type="line"/>
      <point x="110" y="720" type="line"/>
      <point x="343" y="720" type="line" smooth="yes"/>
      <point x="494" y="720"/>
      <point x="583" y="685"/>
      <point x="643" y="614" type="curve"/>
      <point x="643" y="450" type="line"/>
      <point x="609" y="413"/>
      <point x="564" y="386"/>
      <point x="507" y="371" type="curve"/>
      <point x="563" y="365"/>
      <point x="622" y="328"/>
      <point x="653" y="291" type="curve"/>
    </contour>
    <contour>
      <point x="553" y="478" type="curve"/>
      <point x="553" y="576" type="line"/>
      <point x="513" y="620"/>
      <point x="451" y="636"/>
      <point x="343" y="636" type="curve" smooth="yes"/>
      <point x="198" y="636" type="line"/>
      <point x="198" y="410" type="line"/>
      <point x="348" y="410" type="line" smooth="yes"/>
      <point x="454" y="410"/>
      <point x="510" y="432"/>
    </contour>
    <contour>
      <point x="563" y="144" type="curve"/>
      <point x="563" y="264" type="line"/>
      <point x="515" y="314"/>
      <point x="459" y="332"/>
      <point x="348" y="332" type="curve" smooth="yes"/>
      <point x="198" y="332" type="line"/>
      <point x="198" y="84" type="line"/>
      <point x="353" y="84" type="line" smooth="yes"/>
      <point x="461" y="84"/>
      <point x="523" y="99"/>
    </contour>
  </outline>
</glyph>
<glyph name="C" format="1">
  <advance width="780"/>
  <unicode hex="0043"/>
  <outline>
    <contour>
      <point x="685" y="88" type="line"/>
      <point x="599" y="20"/>
      <point x="491" y="-10"/>
      <point x="390" y="-10" type="curve" smooth="yes"/>
      <point x="292" y="-10"/>
      <point x="186" y="19"/>
      <point x="95" y="88" type="curve"/>
      <point x="95" y="632" type="line"/>
      <point x="182" y="700"/>
      <point x="289" y="730"/>
      <point x="390" y="730" type="curve" smooth="yes"/>
      <point x="487" y="730"/>
      <point x="596" y="702"/>
      <point x="685" y="632" type="curve"/>
      <point x="685" y="505" type="line"/>
      <point x="595" y="505" type="line"/>
      <point x="595" y="583" type="line"/>
      <point x="538" y="623"/>
      <point x="465" y="644"/>
      <point x="390" y="644" type="curve" smooth="yes"/>
      <point x="318" y="644"/>
      <point x="246" y="625"/>
      <point x="185" y="583" type="curve"/>
      <point x="185" y="138" type="line"/>
      <point x="242" y="97"/>
      <point x="315" y="76"/>
      <point x="390" y="76" type="curve" smooth="yes"/>
      <point x="463" y="76"/>
      <point x="535" y="95"/>
      <point x="595" y="138" type="curve"/>
      <point x="595" y="215" type="line"/>
      <point x="685" y="215" type="line"/>
    </contour>
  </outline>
</glyph>
<glyph name="D" format="1">
  <advance width="798"/>
  <unicode hex="0044"/>
  <outline>
    <contour>
      <point x="703" y="142" type="line"/>
      <point x="638" y="62"/>
      <point x="534" y="0"/>
      <point x="363" y="0" type="curve" smooth="yes"/>
      <point x="110" y="0" type="line"/>
      <point x="110" y="720" type="line"/>
      <point x="363" y="720" type="line" smooth="yes"/>
      <point x="531" y="720"/>
      <point x="634" y="661"/>
      <point x="703" y="579" type="curve"/>
    </contour>
    <contour>
      <point x="613" y="183" type="curve"/>
      <point x="613" y="538" type="line"/>
      <point x="564" y="594"/>
      <point x="477" y="634"/>
      <point x="363" y="634" type="curve" smooth="yes"/>
      <point x="200" y="634" type="line"/>
      <point x="200" y="86" type="line"/>
      <point x="363" y="86" type="line" smooth="yes"/>
      <point x="475" y="86"/>
      <point x="563" y="125"/>
    </contour>
  </outline>
</glyph>
<glyph name="E" format="1">
  <advance width="778"/>
  <unicode hex="0045"/>
  <outline>
    <contour>
      <point x="685" y="73" type="line"/>
      <point x="598" y="16"/>
      <point x="489" y="-10"/>
      <point x="390" y="-10" type="curve" smooth="yes"/>
      <point x="292" y="-10"/>
      <point x="186" y="14"/>
      <point x="95" y="73" type="curve"/>
      <point x="95" y="647" type="line"/>
      <point x="182" y="704"/>
      <point x="289" y="729"/>
      <point x="390" y="730" type="curve" smooth="yes"/>
      <point x="487" y="730"/>
      <point x="596" y="706"/>
      <point x="685" y="647" type="curve"/>
      <point x="685" y="505" type="line"/>
      <point x="595" y="505" type="line"/>
      <point x="595" y="592" type="line"/>
      <point x="538" y="626"/>
      <point x="465" y="644"/>
      <point x="390" y="644" type="curve" smooth="yes"/>
      <point x="318" y="644"/>
      <point x="246" y="628"/>
      <point x="185" y="592" type="curve"/>
      <point x="185" y="414" type="line"/>
      <point x="510" y="414" type="line"/>
      <point x="510" y="330" type="line"/>
      <point x="185" y="330" type="line"/>
      <point x="185" y="129" type="line"/>
      <point x="242" y="94"/>
      <point x="315" y="76"/>
      <point x="390" y="76" type="curve" smooth="yes"/>
      <point x="463" y="76"/>
      <point x="535" y="92"/>
      <point x="595" y="129" type="curve"/>
      <point x="595" y="215" type="line"/>
      <point x="685" y="215" type="line"/>
    </contour>
  </outline>
</glyph>
<glyph name="F" format="1">
  <advance width="725"/>
  <unicode hex="0046"/>
  <outline>
    <contour>
      <point x="665" y="505" type="line"/>
      <point x="575" y="505" type="line"/>
      <point x="575" y="594" type="line"/>
      <point x="520" y="630"/>
      <point x="455" y="644"/>
      <point x="380" y="644" type="curve" smooth="yes"/>
      <point x="308" y="644"/>
      <point x="244" y="632"/>
      <point x="185" y="594" type="curve"/>
      <point x="185" y="389" type="line"/>
      <point x="510" y="389" type="line"/>
      <point x="510" y="305" type="line"/>
      <point x="185" y="305" type="line"/>
      <point x="185" y="0" type="line"/>
      <point x="95" y="0" type="line"/>
      <point x="95" y="647" type="line"/>
      <point x="183" y="704"/>
      <point x="269" y="730"/>
      <point x="380" y="730" type="curve" smooth="yes"/>
      <point x="487" y="730"/>
      <point x="576" y="706"/>
      <point x="665" y="647" type="curve"/>
    </contour>
  </outline>
</glyph>
<glyph name="G" format="1">
  <advance width="800"/>
  <unicode hex="0047"/>
  <outline>
    <contour>
      <point x="705" y="88" type="line"/>
      <point x="618" y="21"/>
      <point x="509" y="-10"/>
      <point x="400" y="-10" type="curve" smooth="yes"/>
      <point x="292" y="-10"/>
      <point x="185" y="19"/>
      <point x="95" y="88" type="curve"/>
      <point x="95" y="632" type="line"/>
      <point x="183" y="700"/>
      <point x="290" y="730"/>
      <point x="400" y="730" type="curve" smooth="yes"/>
      <point x="505" y="730"/>
      <point x="616" y="703"/>
      <point x="705" y="632" type="curve"/>
      <point x="705" y="505" type="line"/>
      <point x="615" y="505" type="line"/>
      <point x="615" y="583" type="line"/>
      <point x="558" y="623"/>
      <point x="482" y="644"/>
      <point x="400" y="644" type="curve" smooth="yes"/>
      <point x="321" y="644"/>
      <point x="245" y="625"/>
      <point x="185" y="583" type="curve"/>
      <point x="185" y="138" type="line"/>
      <point x="243" y="97"/>
      <point x="319" y="76"/>
      <point x="400" y="76" type="curve" smooth="yes"/>
      <point x="480" y="76"/>
      <point x="556" y="96"/>
      <point x="615" y="138" type="curve"/>
      <point x="615" y="300" type="line"/>
      <point x="426" y="300" type="line"/>
      <point x="426" y="384" type="line"/>
      <point x="705" y="384" type="line"/>
    </contour>
  </outline>
</glyph>
<glyph name="H" format="1">
  <advance width="815"/>
  <unicode hex="0048"/>
  <outline>
    <contour>
      <point x="705" y="0" type="line"/>
      <point x="615" y="0" type="line"/>
      <point x="615" y="328" type="line"/>
      <point x="200" y="328" type="line"/>
      <point x="200" y="0" type="line"/>
      <point x="110" y="0" type="line"/>
      <point x="110" y="720" type="line"/>
      <point x="200" y="720" type="line"/>
      <point x="200" y="414" type="line"/>
      <point x="615" y="414" type="line"/>
      <point x="615" y="720" type="line"/>
      <point x="705" y="720" type="line"/>
    </contour>
  </outline>
</glyph>
<glyph name="I" format="1">
  <advance width="325"/>
  <unicode hex="0049"/>
  <outline>
    <contour>
      <point x="208" y="0" type="line"/>
      <point x="118" y="0" type="line"/>
      <point x="118" y="720" type="line"/>
      <point x="208" y="720" type="line"/>
    </contour>
  </outline>
</glyph>
<glyph name="J" format="1">
  <advance width="490"/>
  <unicode hex="004A"/>
  <outline>
    <contour>
      <point x="385" y="101" type="line"/>
      <point x="324" y="34"/>
      <point x="253" y="0"/>
      <point x="154" y="0" type="curve" smooth="yes"/>
      <point x="60" y="0" type="line"/>
      <point x="60" y="86" type="line"/>
      <point x="154" y="86" type="line" smooth="yes"/>
      <point x="216" y="86"/>
      <point x="261" y="107"/>
      <point x="295" y="144" type="curve"/>
      <point x="295" y="720" type="line"/>
      <point x="385" y="720" type="line"/>
    </contour>
  </outline>
</glyph>
<glyph name="K" format="1">
  <advance width="785"/>
  <unicode hex="004B"/>
  <outline>
    <contour>
      <point x="683" y="0" type="line"/>
      <point x="593" y="0" type="line"/>
      <point x="593" y="219" type="line"/>
      <point x="549" y="281"/>
      <point x="472" y="327"/>
      <point x="338" y="327" type="curve" smooth="yes"/>
      <point x="200" y="327" type="line"/>
      <point x="200" y="0" type="line"/>
      <point x="110" y="0" type="line"/>
      <point x="110" y="720" type="line"/>
      <point x="200" y="720" type="line"/>
      <point x="200" y="405" type="line"/>
      <point x="343" y="405" type="line" smooth="yes"/>
      <point x="462" y="405"/>
      <point x="541" y="444"/>
      <point x="588" y="506" type="curve"/>
      <point x="588" y="720" type="line"/>
      <point x="678" y="720" type="line"/>
      <point x="678" y="470" type="line"/>
      <point x="647" y="431"/>
      <point x="575" y="385"/>
      <point x="507" y="366" type="curve"/>
      <point x="578" y="346"/>
      <point x="643" y="306"/>
      <point x="683" y="256" type="curve"/>
    </contour>
  </outline>
</glyph>
<glyph name="L" format="1">
  <advance width="660"/>
  <unicode hex="004C"/>
  <outline>
    <contour>
      <point x="605" y="0" type="line"/>
      <point x="110" y="0" type="line"/>
      <point x="110" y="720" type="line"/>
      <point x="200" y="720" type="line"/>
      <point x="200" y="85" type="line"/>
      <point x="605" y="85" type="line"/>
    </contour>
  </outline>
</glyph>
<glyph name="M" format="1">
  <advance width="970"/>
  <unicode hex="004D"/>
  <outline>
    <contour>
      <point x="865" y="0" type="line"/>
      <point x="775" y="0" type="line"/>
      <point x="775" y="566" type="line"/>
      <point x="716" y="609"/>
      <point x="630" y="636"/>
      <point x="530" y="643" type="curve"/>
      <point x="530" y="0" type="line"/>
      <point x="440" y="0" type="line"/>
      <point x="440" y="643" type="line"/>
      <point x="341" y="637"/>
      <point x="255" y="611"/>
      <point x="195" y="566" type="curve"/>
      <point x="195" y="0" type="line"/>
      <point x="105" y="0" type="line"/>
      <point x="105" y="614" type="line"/>
      <point x="209" y="692"/>
      <point x="335" y="730"/>
      <point x="485" y="730" type="curve" smooth="yes"/>
      <point x="635" y="730"/>
      <point x="761" y="693"/>
      <point x="865" y="614" type="curve"/>
    </contour>
  </outline>
</glyph>
<glyph name="N" format="1">
  <advance width="820"/>
  <unicode hex="004E"/>
  <outline>
    <contour>
      <point x="715" y="0" type="line"/>
      <point x="625" y="0" type="line"/>
      <point x="625" y="572" type="line"/>
      <point x="574" y="617"/>
      <point x="510" y="644"/>
      <point x="410" y="644" type="curve" smooth="yes"/>
      <point x="313" y="644"/>
      <point x="249" y="621"/>
      <point x="195" y="572" type="curve"/>
      <point x="195" y="0" type="line"/>
      <point x="105" y="0" type="line"/>
      <point x="105" y="614" type="line"/>
      <point x="175" y="683"/>
      <point x="285" y="730"/>
      <point x="410" y="730" type="curve" smooth="yes"/>
      <point x="533" y="730"/>
      <point x="645" y="684"/>
      <point x="715" y="614" type="curve"/>
    </contour>
  </outline>
</glyph>
<glyph name="O" format="1">
  <advance width="820"/>
  <unicode hex="004F"/>
  <outline>
    <contour>
      <point x="725" y="104" type="line"/>
      <point x="638" y="29"/>
      <point x="532" y="-10"/>
      <point x="410" y="-10" type="curve" smooth="yes"/>
      <point x="289" y="-10"/>
      <point x="185" y="28"/>
      <point x="95" y="104" type="curve"/>
      <point x="95" y="617" type="line"/>
      <point x="183" y="692"/>
      <point x="286" y="730"/>
      <point x="410" y="730" type="curve" smooth="yes"/>
      <point x="530" y="730"/>
      <point x="636" y="694"/>
      <point x="725" y="617" type="curve"/>
    </contour>
    <contour>
      <point x="635" y="150" type="curve"/>
      <point x="635" y="571" type="line"/>
      <point x="578" y="616"/>
      <point x="502" y="644"/>
      <point x="410" y="644" type="curve" smooth="yes"/>
      <point x="321" y="644"/>
      <point x="245" y="617"/>
      <point x="185" y="571" type="curve"/>
      <point x="185" y="150" type="line"/>
      <point x="243" y="104"/>
      <point x="319" y="76"/>
      <point x="410" y="76" type="curve" smooth="yes"/>
      <point x="500" y="76"/>
      <point x="576" y="103"/>
    </contour>
  </outline>
</glyph>
<glyph name="P" format="1">
  <advance width="695"/>
  <unicode hex="0050"/>
  <outline>
    <contour>
      <point x="633" y="392" type="line"/>
      <point x="564" y="311"/>
      <point x="495" y="270"/>
      <point x="333" y="270" type="curve" smooth="yes"/>
      <point x="200" y="270" type="line"/>
      <point x="200" y="0" type="line"/>
      <point x="110" y="0" type="line"/>
      <point x="110" y="720" type="line"/>
      <point x="333" y="720" type="line" smooth="yes"/>
      <point x="494" y="720"/>
      <point x="564" y="681"/>
      <point x="633" y="599" type="curve"/>
    </contour>
    <contour>
      <point x="543" y="433" type="curve"/>
      <point x="543" y="558" type="line"/>
      <point x="497" y="611"/>
      <point x="443" y="634"/>
      <point x="333" y="634" type="curve" smooth="yes"/>
      <point x="200" y="634" type="line"/>
      <point x="200" y="356" type="line"/>
      <point x="333" y="356" type="line" smooth="yes"/>
      <point x="440" y="356"/>
      <point x="494" y="378"/>
    </contour>
  </outline>
</glyph>
<glyph name="Q" format="1">
  <advance width="820"/>
  <unicode hex="0051"/>
  <outline>
    <contour>
      <point x="725" y="104" type="line"/>
      <point x="648" y="38"/>
      <point x="557" y="0"/>
      <point x="454" y="-9" type="curve"/>
      <point x="454" y="-125" type="line"/>
      <point x="367" y="-125" type="line"/>
      <point x="367" y="-9" type="line"/>
      <point x="264" y="-1"/>
      <point x="174" y="37"/>
      <point x="95" y="104" type="curve"/>
      <point x="95" y="617" type="line"/>
      <point x="183" y="692"/>
      <point x="286" y="730"/>
      <point x="410" y="730" type="curve" smooth="yes"/>
      <point x="530" y="730"/>
      <point x="636" y="694"/>
      <point x="725" y="617" type="curve"/>
    </contour>
    <contour>
      <point x="635" y="150" type="curve"/>
      <point x="635" y="571" type="line"/>
      <point x="578" y="616"/>
      <point x="502" y="644"/>
      <point x="410" y="644" type="curve" smooth="yes"/>
      <point x="321" y="644"/>
      <point x="245" y="617"/>
      <point x="185" y="571" type="curve"/>
      <point x="185" y="150" type="line"/>
      <point x="233" y="112"/>
      <point x="294" y="86"/>
      <point x="367" y="78" type="curve"/>
      <point x="367" y="192" type="line"/>
      <point x="454" y="192" type="line"/>
      <point x="454" y="78" type="line"/>
      <point x="525" y="86"/>
      <point x="586" y="111"/>
    </contour>
  </outline>
</glyph>
<glyph name="R" format="1">
  <advance width="755"/>
  <unicode hex="0052"/>
  <outline>
    <contour>
      <point x="663" y="0" type="line"/>
      <point x="573" y="0" type="line"/>
      <point x="573" y="229" type="line"/>
      <point x="527" y="275"/>
      <point x="462" y="297"/>
      <point x="358" y="297" type="curve" smooth="yes"/>
      <point x="200" y="297" type="line"/>
      <point x="200" y="0" type="line"/>
      <point x="110" y="0" type="line"/>
      <point x="110" y="720" type="line"/>
      <point x="368" y="720" type="line" smooth="yes"/>
      <point x="529" y="720"/>
      <point x="590" y="688"/>
      <point x="658" y="606" type="curve"/>
      <point x="658" y="405" type="line"/>
      <point x="625" y="373"/>
      <point x="581" y="352"/>
      <point x="527" y="336" type="curve"/>
      <point x="578" y="326"/>
      <point x="633" y="297"/>
      <point x="663" y="266" type="curve"/>
    </contour>
    <contour>
      <point x="568" y="443" type="curve"/>
      <point x="568" y="569" type="line"/>
      <point x="522" y="622"/>
      <point x="476" y="634"/>
      <point x="368" y="634" type="curve" smooth="yes"/>
      <point x="200" y="634" type="line"/>
      <point x="200" y="375" type="line"/>
      <point x="363" y="375" type="line" smooth="yes"/>
      <point x="469" y="375"/>
      <point x="525" y="397"/>
    </contour>
  </outline>
</glyph>
<glyph name="S" format="1">
  <advance width="760"/>
  <unicode hex="0053"/>
  <outline>
    <contour>
      <point x="665" y="78" type="line"/>
      <point x="578" y="18"/>
      <point x="480" y="-10"/>
      <point x="380" y="-10" type="curve" smooth="yes"/>
      <point x="285" y="-10"/>
      <point x="185" y="16"/>
      <point x="95" y="78" type="curve"/>
      <point x="95" y="215" type="line"/>
      <point x="185" y="215" type="line"/>
      <point x="185" y="130" type="line"/>
      <point x="243" y="93"/>
      <point x="314" y="76"/>
      <point x="380" y="76" type="curve" smooth="yes"/>
      <point x="446" y="76"/>
      <point x="516" y="92"/>
      <point x="575" y="130" type="curve"/>
      <point x="575" y="237" type="line"/>
      <point x="98" y="411" type="line"/>
      <point x="98" y="642" type="line"/>
      <point x="185" y="703"/>
      <point x="272" y="730"/>
      <point x="380" y="730" type="curve" smooth="yes"/>
      <point x="485" y="730"/>
      <point x="573" y="704"/>
      <point x="663" y="642" type="curve"/>
      <point x="663" y="505" type="line"/>
      <point x="573" y="505" type="line"/>
      <point x="573" y="590" type="line"/>
      <point x="516" y="627"/>
      <point x="456" y="644"/>
      <point x="380" y="644" type="curve" smooth="yes"/>
      <point x="309" y="644"/>
      <point x="249" y="629"/>
      <point x="188" y="590" type="curve"/>
      <point x="188" y="471" type="line"/>
      <point x="665" y="297" type="line"/>
    </contour>
  </outline>
</glyph>
<glyph name="T" format="1">
  <advance width="710"/>
  <unicode hex="0054"/>
  <outline>
    <contour>
      <point x="650" y="635" type="line"/>
      <point x="400" y="635" type="line"/>
      <point x="400" y="0" type="line"/>
      <point x="310" y="0" type="line"/>
      <point x="310" y="635" type="line"/>
      <point x="60" y="635" type="line"/>
      <point x="60" y="720" type="line"/>
      <point x="650" y="720" type="line"/>
    </contour>
  </outline>
</glyph>
<glyph name="U" format="1">
  <advance width="820"/>
  <unicode hex="0055"/>
  <outline>
    <contour>
      <point x="715" y="107" type="line"/>
      <point x="645" y="38"/>
      <point x="536" y="-10"/>
      <point x="410" y="-10" type="curve" smooth="yes"/>
      <point x="287" y="-10"/>
      <point x="176" y="36"/>
      <point x="105" y="107" type="curve"/>
      <point x="105" y="720" type="line"/>
      <point x="195" y="720" type="line"/>
      <point x="195" y="149" type="line"/>
      <point x="247" y="103"/>
      <point x="310" y="76"/>
      <point x="410" y="76" type="curve" smooth="yes"/>
      <point x="509" y="76"/>
      <point x="573" y="102"/>
      <point x="625" y="149" type="curve"/>
      <point x="625" y="720" type="line"/>
      <point x="715" y="720" type="line"/>
    </contour>
  </outline>
</glyph>
<glyph name="V" format="1">
  <advance width="820"/>
  <unicode hex="0056"/>
  <outline>
    <contour>
      <point x="715" y="557" type="line" smooth="yes"/>
      <point x="715" y="294"/>
      <point x="575" y="111"/>
      <point x="455" y="-10" type="curve"/>
      <point x="365" y="-10" type="line"/>
      <point x="245" y="111"/>
      <point x="105" y="294"/>
      <point x="105" y="557" type="curve" smooth="yes"/>
      <point x="105" y="720" type="line"/>
      <point x="195" y="720" type="line"/>
      <point x="195" y="560" type="line" smooth="yes"/>
      <point x="195" y="311"/>
      <point x="320" y="153"/>
      <point x="410" y="64" type="curve"/>
      <point x="500" y="153"/>
      <point x="625" y="311"/>
      <point x="625" y="560" type="curve" smooth="yes"/>
      <point x="625" y="720" type="line"/>
      <point x="715" y="720" type="line"/>
    </contour>
  </outline>
</glyph>
<glyph name="W" format="1">
  <advance width="970"/>
  <unicode hex="0057"/>
  <outline>
    <contour>
      <point x="865" y="107" type="line"/>
      <point x="761" y="29"/>
      <point x="637" y="-10"/>
      <point x="485" y="-10" type="curve" smooth="yes"/>
      <point x="336" y="-10"/>
      <point x="210" y="26"/>
      <point x="105" y="107" type="curve"/>
      <point x="105" y="720" type="line"/>
      <point x="195" y="720" type="line"/>
      <point x="195" y="155" type="line"/>
      <point x="254" y="112"/>
      <point x="340" y="85"/>
      <point x="440" y="78" type="curve"/>
      <point x="440" y="720" type="line"/>
      <point x="530" y="720" type="line"/>
      <point x="530" y="78" type="line"/>
      <point x="629" y="84"/>
      <point x="715" y="110"/>
      <point x="775" y="155" type="curve"/>
      <point x="775" y="720" type="line"/>
      <point x="865" y="720" type="line"/>
    </contour>
  </outline>
</glyph>
<glyph name="X" format="1">
  <advance width="748"/>
  <unicode hex="0058"/>
  <outline>
    <contour>
      <point x="645" y="0" type="line"/>
      <point x="555" y="0" type="line"/>
      <point x="555" y="255" type="line"/>
      <point x="513" y="304"/>
      <point x="443" y="329"/>
      <point x="374" y="329" type="curve" smooth="yes"/>
      <point x="305" y="329"/>
      <point x="234" y="304"/>
      <point x="192" y="255" type="curve"/>
      <point x="192" y="0" type="line"/>
      <point x="102" y="0" type="line"/>
      <point x="102" y="281" type="line"/>
      <point x="133" y="318"/>
      <point x="198" y="360"/>
      <point x="253" y="371" type="curve"/>
      <point x="198" y="389"/>
      <point x="143" y="422"/>
      <point x="107" y="460" type="curve"/>
      <point x="107" y="720" type="line"/>
      <point x="197" y="720" type="line"/>
      <point x="197" y="488" type="line"/>
      <point x="237" y="442"/>
      <point x="306" y="413"/>
      <point x="374" y="413" type="curve" smooth="yes"/>
      <point x="441" y="413"/>
      <point x="511" y="442"/>
      <point x="550" y="488" type="curve"/>
      <point x="550" y="720" type="line"/>
      <point x="640" y="720" type="line"/>
      <point x="640" y="460" type="line"/>
      <point x="605" y="422"/>
      <point x="549" y="389"/>
      <point x="494" y="371" type="curve"/>
      <point x="550" y="360"/>
      <point x="614" y="318"/>
      <point x="645" y="281" type="curve"/>
    </contour>
  </outline>
</glyph>
<glyph name="Y" format="1">
  <advance width="750"/>
  <unicode hex="0059"/>
  <outline>
    <contour>
      <point x="650" y="358" type="line"/>
      <point x="590" y="296"/>
      <point x="500" y="261"/>
      <point x="420" y="251" type="curve"/>
      <point x="420" y="0" type="line"/>
      <point x="330" y="0" type="line"/>
      <point x="330" y="251" type="line"/>
      <point x="253" y="261"/>
      <point x="161" y="295"/>
      <point x="100" y="358" type="curve"/>
      <point x="100" y="720" type="line"/>
      <point x="190" y="720" type="line"/>
      <point x="190" y="399" type="line"/>
      <point x="230" y="354"/>
      <point x="301" y="332"/>
      <point x="375" y="332" type="curve" smooth="yes"/>
      <point x="449" y="332"/>
      <point x="519" y="353"/>
      <point x="560" y="399" type="curve"/>
      <point x="560" y="720" type="line"/>
      <point x="650" y="720" type="line"/>
    </contour>
  </outline>
</glyph>
<glyph name="Z" format="1">
  <advance width="740"/>
  <unicode hex="005A"/>
  <outline>
    <contour>
      <point x="650" y="0" type="line"/>
      <point x="85" y="0" type="line"/>
      <point x="85" y="74" type="line"/>
      <point x="536" y="637" type="line"/>
      <point x="105" y="637" type="line"/>
      <point x="105" y="720" type="line"/>
      <point x="645" y="720" type="line"/>
      <point x="645" y="640" type="line"/>
      <point x="197" y="83" type="line"/>
      <point x="650" y="83" type="line"/>
    </contour>
  </outline>
</glyph>
<glyph name="bracketleft" format="1">
  <advance width="415"/>
  <unicode hex="005B"/>
  <outline>
    <contour>
      <point x="340" y="0" type="line"/>
      <point x="110" y="0" type="line"/>
      <point x="110" y="720" type="line"/>
      <point x="340" y="720" type="line"/>
      <point x="340" y="641" type="line"/>
      <point x="198" y="641" type="line"/>
      <point x="198" y="79" type="line"/>
      <point x="340" y="79" type="line"/>
    </contour>
  </outline>
</glyph>
<glyph name="backslash" format="1">
  <advance width="500"/>
  <unicode hex="005C"/>
  <outline>
    <contour>
      <point x="445" y="0" type="line"/>
      <point x="353" y="0" type="line"/>
      <point x="55" y="720" type="line"/>
      <point x="147" y="720" type="line"/>
    </contour>
  </outline>
</glyph>
<glyph name="bracketright" format="1">
  <advance width="415"/>
  <unicode hex="005D"/>
  <outline>
    <contour>
      <point x="305" y="0" type="line"/>
      <point x="75" y="0" type="line"/>
      <point x="75" y="79" type="line"/>
      <point x="218" y="79" type="line"/>
      <point x="218" y="641" type="line"/>
      <point x="75" y="641" type="line"/>
      <point x="75" y="720" type="line"/>
      <point x="305" y="720" type="line"/>
    </contour>
  </outline>
</glyph>
<glyph name="asciicircum" format="1">
  <advance width="600"/>
  <unicode hex="005E"/>
  <outline>
    <contour>
      <point x="540" y="350" type="line"/>
      <point x="445" y="350" type="line"/>
      <point x="300" y="637" type="line"/>
      <point x="155" y="350" type="line"/>
      <point x="60" y="350" type="line"/>
      <point x="253" y="730" type="line"/>
      <point x="348" y="730" type="line"/>
    </contour>
  </outline>
</glyph>
<glyph name="underscore" format="1">
  <advance width="600"/>
  <unicode hex="005F"/>
  <outline>
    <contour>
      <point x="600" y="-131" type="line"/>
      <point x="0" y="-131" type="line"/>
      <point x="0" y="-45" type="line"/>
      <point x="600" y="-45" type="line"/>
    </contour>
  </outline>
</glyph>
<glyph name="grave" format="1">
  <advance width="500"/>
  <unicode hex="0060"/>
  <outline>
    <contour>
      <point x="361" y="555" type="line"/>
      <point x="260" y="555" type="line"/>
      <point x="139" y="720" type="line"/>
      <point x="250" y="720" type="line"/>
    </contour>
  </outline>
</glyph>
<glyph name="a" format="1">
  <advance width="540"/>
  <unicode hex="0061"/>
  <outline>
    <contour>
      <point x="468" y="52" type="line"/>
      <point x="416" y="11"/>
      <point x="356" y="-10"/>
      <point x="268" y="-10" type="curve" smooth="yes"/>
      <point x="182" y="-10"/>
      <point x="122" y="9"/>
      <point x="68" y="52" type="curve"/>
      <point x="68" y="233" type="line"/>
      <point x="113" y="270"/>
      <point x="181" y="294"/>
      <point x="257" y="294" type="curve" smooth="yes"/>
      <point x="305" y="294"/>
      <point x="346" y="287"/>
      <point x="386" y="272" type="curve"/>
      <point x="386" y="384" type="line"/>
      <point x="356" y="404"/>
      <point x="320" y="412"/>
      <point x="270" y="412" type="curve" smooth="yes"/>
      <point x="224" y="412"/>
      <point x="191" y="407"/>
      <point x="158" y="389" type="curve"/>
      <point x="158" y="334" type="line"/>
      <point x="73" y="334" type="line"/>
      <point x="73" y="435" type="line"/>
      <point x="126" y="473"/>
      <point x="195" y="490"/>
      <point x="270" y="490" type="curve" smooth="yes"/>
      <point x="344" y="490"/>
      <point x="414" y="471"/>
      <point x="468" y="429" type="curve"/>
    </contour>
    <contour>
      <point x="386" y="96" type="curve"/>
      <point x="386" y="193" type="line"/>
      <point x="362" y="206"/>
      <point x="317" y="218"/>
      <point x="268" y="218" type="curve" smooth="yes"/>
      <point x="217" y="219"/>
      <point x="182" y="212"/>
      <point x="148" y="188" type="curve"/>
      <point x="148" y="96" type="line"/>
      <point x="174" y="78"/>
      <point x="213" y="69"/>
      <point x="268" y="68" type="curve" smooth="yes"/>
      <point x="321" y="68"/>
      <point x="359" y="77"/>
    </contour>
  </outline>
</glyph>
<glyph name="b" format="1">
  <advance width="583"/>
  <unicode hex="0062"/>
  <outline>
    <contour>
      <point x="510" y="72" type="line"/>
      <point x="468" y="27"/>
      <point x="392" y="-10"/>
      <point x="295" y="-10" type="curve" smooth="yes"/>
      <point x="195" y="-10"/>
      <point x="121" y="29"/>
      <point x="80" y="72" type="curve"/>
      <point x="80" y="720" type="line"/>
      <point x="165" y="720" type="line"/>
      <point x="165" y="458" type="line"/>
      <point x="205" y="478"/>
      <point x="248" y="490"/>
      <point x="300" y="490" type="curve" smooth="yes"/>
      <point x="386" y="490"/>
      <point x="461" y="460"/>
      <point x="510" y="408" type="curve"/>
    </contour>
    <contour>
      <point x="425" y="115" type="curve"/>
      <point x="425" y="366" type="line"/>
      <point x="398" y="392"/>
      <point x="353" y="410"/>
      <point x="295" y="410" type="curve" smooth="yes"/>
      <point x="235" y="410"/>
      <point x="193" y="393"/>
      <point x="165" y="370" type="curve"/>
      <point x="165" y="115" type="line"/>
      <point x="193" y="89"/>
      <point x="238" y="70"/>
      <point x="295" y="70" type="curve" smooth="yes"/>
      <point x="355" y="70"/>
      <point x="400" y="91"/>
    </contour>
  </outline>
</glyph>
<glyph name="c" format="1">
  <advance width="550"/>
  <unicode hex="0063"/>
  <outline>
    <contour>
      <point x="483" y="59" type="line"/>
      <point x="430" y="13"/>
      <point x="355" y="-10"/>
      <point x="278" y="-10" type="curve" smooth="yes"/>
      <point x="205" y="-10"/>
      <point x="127" y="10"/>
      <point x="73" y="59" type="curve"/>
      <point x="73" y="422" type="line"/>
      <point x="125" y="467"/>
      <point x="201" y="490"/>
      <point x="278" y="490" type="curve" smooth="yes"/>
      <point x="351" y="490"/>
      <point x="428" y="469"/>
      <point x="483" y="422" type="curve"/>
      <point x="483" y="311" type="line"/>
      <point x="398" y="311" type="line"/>
      <point x="398" y="379" type="line"/>
      <point x="367" y="401"/>
      <point x="326" y="410"/>
      <point x="278" y="410" type="curve" smooth="yes"/>
      <point x="231" y="410"/>
      <point x="190" y="403"/>
      <point x="158" y="379" type="curve"/>
      <point x="158" y="102" type="line"/>
      <point x="188" y="79"/>
      <point x="229" y="71"/>
      <point x="278" y="70" type="curve" smooth="yes"/>
      <point x="324" y="70"/>
      <point x="365" y="77"/>
      <point x="398" y="102" type="curve"/>
      <point x="398" y="170" type="line"/>
      <point x="483" y="170" type="line"/>
    </contour>
  </outline>
</glyph>
<glyph name="d" format="1">
  <advance width="583"/>
  <unicode hex="0064"/>
  <outline>
    <contour>
      <point x="503" y="72" type="line"/>
      <point x="462" y="29"/>
      <point x="388" y="-10"/>
      <point x="288" y="-10" type="curve" smooth="yes"/>
      <point x="191" y="-10"/>
      <point x="115" y="27"/>
      <point x="73" y="72" type="curve"/>
      <point x="73" y="408" type="line"/>
      <point x="122" y="460"/>
      <point x="197" y="490"/>
      <point x="283" y="490" type="curve" smooth="yes"/>
      <point x="335" y="490"/>
      <point x="378" y="478"/>
      <point x="418" y="458" type="curve"/>
      <point x="418" y="720" type="line"/>
      <point x="503" y="720" type="line"/>
    </contour>
    <contour>
      <point x="418" y="115" type="curve"/>
      <point x="418" y="370" type="line"/>
      <point x="390" y="393"/>
      <point x="348" y="410"/>
      <point x="288" y="410" type="curve" smooth="yes"/>
      <point x="230" y="410"/>
      <point x="185" y="392"/>
      <point x="158" y="366" type="curve"/>
      <point x="158" y="115" type="line"/>
      <point x="183" y="91"/>
      <point x="228" y="70"/>
      <point x="288" y="70" type="curve" smooth="yes"/>
      <point x="345" y="70"/>
      <point x="390" y="89"/>
    </contour>
  </outline>
</glyph>
<glyph name="e" format="1">
  <advance width="545"/>
  <unicode hex="0065"/>
  <outline>
    <contour>
      <point x="473" y="59" type="line"/>
      <point x="420" y="13"/>
      <point x="349" y="-10"/>
      <point x="273" y="-10" type="curve" smooth="yes"/>
      <point x="199" y="-10"/>
      <point x="127" y="10"/>
      <point x="73" y="59" type="curve"/>
      <point x="73" y="416" type="line"/>
      <point x="121" y="463"/>
      <point x="190" y="490"/>
      <point x="272" y="490" type="curve" smooth="yes"/>
      <point x="352" y="490"/>
      <point x="422" y="464"/>
      <point x="472" y="416" type="curve"/>
      <point x="472" y="205" type="line"/>
      <point x="154" y="205" type="line"/>
      <point x="154" y="102" type="line"/>
      <point x="185" y="79"/>
      <point x="225" y="71"/>
      <point x="273" y="70" type="curve" smooth="yes"/>
      <point x="319" y="70"/>
      <point x="355" y="77"/>
      <point x="388" y="102" type="curve"/>
      <point x="388" y="155" type="line"/>
      <point x="473" y="155" type="line"/>
    </contour>
    <contour>
      <point x="389" y="279" type="line"/>
      <point x="389" y="374" type="line"/>
      <point x="361" y="396"/>
      <point x="327" y="410"/>
      <point x="272" y="410" type="curve" smooth="yes"/>
      <point x="220" y="410"/>
      <point x="185" y="398"/>
      <point x="154" y="374" type="curve"/>
      <point x="154" y="279" type="line"/>
    </contour>
  </outline>
</glyph>
<glyph name="f" format="1">
  <advance width="355"/>
  <unicode hex="0066"/>
  <outline>
    <contour>
      <point x="333" y="645" type="line"/>
      <point x="283" y="645" type="line" smooth="yes"/>
      <point x="253" y="645"/>
      <point x="225" y="632"/>
      <point x="208" y="611" type="curve"/>
      <point x="208" y="480" type="line"/>
      <point x="323" y="480" type="line"/>
      <point x="323" y="403" type="line"/>
      <point x="208" y="403" type="line"/>
      <point x="208" y="0" type="line"/>
      <point x="123" y="0" type="line"/>
      <point x="123" y="403" type="line"/>
      <point x="49" y="403" type="line"/>
      <point x="49" y="480" type="line"/>
      <point x="123" y="480" type="line"/>
      <point x="123" y="644" type="line"/>
      <point x="163" y="700"/>
      <point x="221" y="725"/>
      <point x="283" y="725" type="curve" smooth="yes"/>
      <point x="333" y="725" type="line"/>
    </contour>
  </outline>
</glyph>
<glyph name="g" format="1">
  <advance width="583"/>
  <unicode hex="0067"/>
  <outline>
    <contour>
      <point x="503" y="-119" type="line"/>
      <point x="462" y="-155"/>
      <point x="387" y="-185"/>
      <point x="288" y="-185" type="curve" smooth="yes"/>
      <point x="197" y="-185"/>
      <point x="115" y="-161"/>
      <point x="73" y="-124" type="curve"/>
      <point x="73" y="-31" type="line"/>
      <point x="158" y="-31" type="line"/>
      <point x="158" y="-80" type="line"/>
      <point x="185" y="-100"/>
      <point x="229" y="-108"/>
      <point x="288" y="-108" type="curve" smooth="yes"/>
      <point x="348" y="-109"/>
      <point x="389" y="-96"/>
      <point x="418" y="-74" type="curve"/>
      <point x="418" y="22" type="line"/>
      <point x="378" y="3"/>
      <point x="335" y="-10"/>
      <point x="283" y="-10" type="curve" smooth="yes"/>
      <point x="197" y="-10"/>
      <point x="122" y="21"/>
      <point x="73" y="72" type="curve"/>
      <point x="73" y="408" type="line"/>
      <point x="115" y="454"/>
      <point x="191" y="490"/>
      <point x="288" y="490" type="curve" smooth="yes"/>
      <point x="388" y="490"/>
      <point x="462" y="452"/>
      <point x="503" y="408" type="curve"/>
    </contour>
    <contour>
      <point x="418" y="111" type="curve"/>
      <point x="418" y="365" type="line"/>
      <point x="390" y="392"/>
      <point x="345" y="410"/>
      <point x="288" y="410" type="curve" smooth="yes"/>
      <point x="228" y="410"/>
      <point x="183" y="390"/>
      <point x="158" y="365" type="curve"/>
      <point x="158" y="115" type="line"/>
      <point x="185" y="88"/>
      <point x="230" y="70"/>
      <point x="288" y="70" type="curve" smooth="yes"/>
      <point x="348" y="70"/>
      <point x="390" y="88"/>
    </contour>
  </outline>
</glyph>
<glyph name="h" format="1">
  <advance width="580"/>
  <unicode hex="0068"/>
  <outline>
    <contour>
      <point x="500" y="0" type="line"/>
      <point x="415" y="0" type="line"/>
      <point x="415" y="374" type="line"/>
      <point x="385" y="399"/>
      <point x="339" y="410"/>
      <point x="290" y="410" type="curve" smooth="yes"/>
      <point x="244" y="410"/>
      <point x="197" y="398"/>
      <point x="165" y="374" type="curve"/>
      <point x="165" y="0" type="line"/>
      <point x="80" y="0" type="line"/>
      <point x="80" y="720" type="line"/>
      <point x="165" y="720" type="line"/>
      <point x="165" y="460" type="line"/>
      <point x="207" y="480"/>
      <point x="246" y="490"/>
      <point x="300" y="490" type="curve" smooth="yes"/>
      <point x="382" y="490"/>
      <point x="449" y="466"/>
      <point x="500" y="416" type="curve"/>
    </contour>
  </outline>
</glyph>
<glyph name="i" format="1">
  <advance width="270"/>
  <unicode hex="0069"/>
  <outline>
    <contour>
      <point x="183" y="610" type="line"/>
      <point x="88" y="610" type="line"/>
      <point x="88" y="720" type="line"/>
      <point x="183" y="720" type="line"/>
    </contour>
    <contour>
      <point x="178" y="0" type="line"/>
      <point x="93" y="0" type="line"/>
      <point x="93" y="480" type="line"/>
      <point x="178" y="480" type="line"/>
    </contour>
  </outline>
</glyph>
<glyph name="j" format="1">
  <advance width="270"/>
  <unicode hex="006A"/>
  <outline>
    <contour>
      <point x="183" y="610" type="line"/>
      <point x="88" y="610" type="line"/>
      <point x="88" y="720" type="line"/>
      <point x="183" y="720" type="line"/>
    </contour>
    <contour>
      <point x="178" y="-99" type="line"/>
      <point x="138" y="-155"/>
      <point x="80" y="-180"/>
      <point x="18" y="-180" type="curve" smooth="yes"/>
      <point x="-12" y="-180" type="line"/>
      <point x="-12" y="-100" type="line"/>
      <point x="18" y="-100" type="line" smooth="yes"/>
      <point x="48" y="-100"/>
      <point x="76" y="-87"/>
      <point x="93" y="-66" type="curve"/>
      <point x="93" y="480" type="line"/>
      <point x="178" y="480" type="line"/>
    </contour>
  </outline>
</glyph>
<glyph name="k" format="1">
  <advance width="538"/>
  <unicode hex="006B"/>
  <outline>
    <contour>
      <point x="465" y="0" type="line"/>
      <point x="380" y="0" type="line"/>
      <point x="380" y="113" type="line"/>
      <point x="351" y="167"/>
      <point x="284" y="207"/>
      <point x="195" y="207" type="curve" smooth="yes"/>
      <point x="165" y="207" type="line"/>
      <point x="165" y="-1" type="line"/>
      <point x="80" y="0" type="line"/>
      <point x="80" y="720" type="line"/>
      <point x="165" y="720" type="line"/>
      <point x="165" y="283" type="line"/>
      <point x="195" y="283" type="line" smooth="yes"/>
      <point x="266" y="283"/>
      <point x="329" y="315"/>
      <point x="365" y="372" type="curve"/>
      <point x="365" y="480" type="line"/>
      <point x="450" y="480" type="line"/>
      <point x="450" y="341" type="line"/>
      <point x="421" y="301"/>
      <point x="374" y="266"/>
      <point x="314" y="245" type="curve"/>
      <point x="378" y="226"/>
      <point x="425" y="200"/>
      <point x="465" y="148" type="curve"/>
    </contour>
  </outline>
</glyph>
<glyph name="m" format="1">
  <advance width="775"/>
  <unicode hex="006D"/>
  <outline>
    <contour>
      <point x="695" y="0" type="line"/>
      <point x="611" y="0" type="line"/>
      <point x="611" y="371" type="line"/>
      <point x="565" y="395"/>
      <point x="517" y="408"/>
      <point x="430" y="412" type="curve"/>
      <point x="430" y="0" type="line"/>
      <point x="346" y="0" type="line"/>
      <point x="346" y="412" type="line"/>
      <point x="260" y="409"/>
      <point x="213" y="396"/>
      <point x="165" y="371" type="curve"/>
      <point x="165" y="0" type="line"/>
      <point x="80" y="0" type="line"/>
      <point x="80" y="414" type="line"/>
      <point x="164" y="464"/>
      <point x="265" y="490"/>
      <point x="388" y="490" type="curve" smooth="yes"/>
      <point x="507" y="490"/>
      <point x="609" y="465"/>
      <point x="695" y="414" type="curve"/>
    </contour>
  </outline>
</glyph>
<glyph name="n" format="1">
  <advance width="580"/>
  <unicode hex="006E"/>
  <outline>
    <contour>
      <point x="500" y="0" type="line"/>
      <point x="415" y="0" type="line"/>
      <point x="415" y="374" type="line"/>
      <point x="385" y="399"/>
      <point x="339" y="410"/>
      <point x="290" y="410" type="curve" smooth="yes"/>
      <point x="244" y="410"/>
      <point x="198" y="401"/>
      <point x="165" y="374" type="curve"/>
      <point x="165" y="0" type="line"/>
      <point x="80" y="0" type="line"/>
      <point x="80" y="422" type="line"/>
      <point x="133" y="467"/>
      <point x="215" y="490"/>
      <point x="290" y="490" type="curve" smooth="yes"/>
      <point x="364" y="490"/>
      <point x="446" y="469"/>
      <point x="500" y="422" type="curve"/>
    </contour>
  </outline>
</glyph>
<glyph name="o" format="1">
  <advance width="575"/>
  <unicode hex="006F"/>
  <outline>
    <contour>
      <point x="503" y="73" type="line"/>
      <point x="462" y="29"/>
      <point x="388" y="-10"/>
      <point x="288" y="-10" type="curve" smooth="yes"/>
      <point x="191" y="-10"/>
      <point x="115" y="26"/>
      <point x="73" y="73" type="curve"/>
      <point x="73" y="408" type="line"/>
      <point x="113" y="452"/>
      <point x="188" y="490"/>
      <point x="288" y="490" type="curve" smooth="yes"/>
      <point x="385" y="490"/>
      <point x="460" y="454"/>
      <point x="503" y="408" type="curve"/>
    </contour>
    <contour>
      <point x="418" y="115" type="curve"/>
      <point x="418" y="366" type="line"/>
      <point x="392" y="391"/>
      <point x="347" y="410"/>
      <point x="288" y="410" type="curve" smooth="yes"/>
      <point x="231" y="410"/>
      <point x="185" y="392"/>
      <point x="158" y="366" type="curve"/>
      <point x="158" y="115" type="line"/>
      <point x="183" y="91"/>
      <point x="228" y="70"/>
      <point x="288" y="70" type="curve" smooth="yes"/>
      <point x="345" y="70"/>
      <point x="390" y="89"/>
    </contour>
  </outline>
</glyph>
<glyph name="p" format="1">
  <advance width="583"/>
  <unicode hex="0070"/>
  <outline>
    <contour>
      <point x="510" y="72" type="line"/>
      <point x="461" y="21"/>
      <point x="386" y="-10"/>
      <point x="300" y="-10" type="curve" smooth="yes"/>
      <point x="248" y="-10"/>
      <point x="205" y="3"/>
      <point x="165" y="22" type="curve"/>
      <point x="165" y="-175" type="line"/>
      <point x="80" y="-175" type="line"/>
      <point x="80" y="408" type="line"/>
      <point x="121" y="452"/>
      <point x="195" y="490"/>
      <point x="295" y="490" type="curve" smooth="yes"/>
      <point x="392" y="490"/>
      <point x="468" y="454"/>
      <point x="510" y="408" type="curve"/>
    </contour>
    <contour>
      <point x="425" y="115" type="curve"/>
      <point x="425" y="365" type="line"/>
      <point x="400" y="390"/>
      <point x="355" y="410"/>
      <point x="295" y="410" type="curve" smooth="yes"/>
      <point x="238" y="410"/>
      <point x="193" y="392"/>
      <point x="165" y="365" type="curve"/>
      <point x="165" y="111" type="line"/>
      <point x="193" y="88"/>
      <point x="235" y="70"/>
      <point x="295" y="70" type="curve" smooth="yes"/>
      <point x="353" y="70"/>
      <point x="398" y="88"/>
    </contour>
  </outline>
</glyph>
<glyph name="r" format="1">
  <advance width="377"/>
  <unicode hex="0072"/>
  <outline>
    <contour>
      <point x="343" y="405" type="line"/>
      <point x="260" y="405" type="line" smooth="yes"/>
      <point x="225" y="405"/>
      <point x="187" y="390"/>
      <point x="165" y="370" type="curve"/>
      <point x="165" y="0" type="line"/>
      <point x="80" y="0" type="line"/>
      <point x="80" y="415" type="line"/>
      <point x="129" y="460"/>
      <point x="192" y="485"/>
      <point x="260" y="485" type="curve" smooth="yes"/>
      <point x="343" y="485" type="line"/>
    </contour>
  </outline>
</glyph>
<glyph name="s" format="1">
  <advance width="536"/>
  <unicode hex="0073"/>
  <outline>
    <contour>
      <point x="463" y="52" type="line"/>
      <point x="410" y="8"/>
      <point x="341" y="-10"/>
      <point x="268" y="-10" type="curve" smooth="yes"/>
      <point x="191" y="-10"/>
      <point x="125" y="11"/>
      <point x="73" y="52" type="curve"/>
      <point x="73" y="169" type="line"/>
      <point x="156" y="169" type="line"/>
      <point x="156" y="96" type="line"/>
      <point x="184" y="77"/>
      <point x="222" y="68"/>
      <point x="268" y="68" type="curve" smooth="yes"/>
      <point x="317" y="69"/>
      <point x="348" y="77"/>
      <point x="380" y="98" type="curve"/>
      <point x="380" y="159" type="line"/>
      <point x="75" y="267" type="line"/>
      <point x="75" y="428" type="line"/>
      <point x="126" y="469"/>
      <point x="191" y="490"/>
      <point x="268" y="490" type="curve" smooth="yes"/>
      <point x="341" y="490"/>
      <point x="407" y="471"/>
      <point x="461" y="428" type="curve"/>
      <point x="461" y="312" type="line"/>
      <point x="378" y="312" type="line"/>
      <point x="378" y="386" type="line"/>
      <point x="346" y="405"/>
      <point x="316" y="412"/>
      <point x="268" y="412" type="curve" smooth="yes"/>
      <point x="221" y="412"/>
      <point x="192" y="405"/>
      <point x="158" y="384" type="curve"/>
      <point x="158" y="321" type="line"/>
      <point x="463" y="212" type="line"/>
    </contour>
  </outline>
</glyph>
<glyph name="t" format="1">
  <advance width="382"/>
  <unicode hex="0074"/>
  <outline>
    <contour>
      <point x="328" y="-5" type="line"/>
      <point x="278" y="-5" type="line" smooth="yes"/>
      <point x="216" y="-5"/>
      <point x="158" y="20"/>
      <point x="118" y="76" type="curve"/>
      <point x="118" y="403" type="line"/>
      <point x="44" y="403" type="line"/>
      <point x="44" y="480" type="line"/>
      <point x="118" y="480" type="line"/>
      <point x="118" y="640" type="line"/>
      <point x="203" y="640" type="line"/>
      <point x="203" y="480" type="line"/>
      <point x="318" y="480" type="line"/>
      <point x="318" y="403" type="line"/>
      <point x="203" y="403" type="line"/>
      <point x="203" y="109" type="line"/>
      <point x="220" y="88"/>
      <point x="248" y="75"/>
      <point x="278" y="75" type="curve" smooth="yes"/>
      <point x="328" y="75" type="line"/>
    </contour>
  </outline>
</glyph>
<glyph name="u" format="1">
  <advance width="580"/>
  <unicode hex="0075"/>
  <outline>
    <contour>
      <point x="500" y="59" type="line"/>
      <point x="448" y="13"/>
      <point x="366" y="-10"/>
      <point x="290" y="-10" type="curve" smooth="yes"/>
      <point x="217" y="-10"/>
      <point x="135" y="10"/>
      <point x="80" y="59" type="curve"/>
      <point x="80" y="480" type="line"/>
      <point x="165" y="480" type="line"/>
      <point x="165" y="106" type="line"/>
      <point x="196" y="82"/>
      <point x="242" y="70"/>
      <point x="290" y="70" type="curve" smooth="yes"/>
      <point x="337" y="70"/>
      <point x="383" y="80"/>
      <point x="415" y="106" type="curve"/>
      <point x="415" y="480" type="line"/>
      <point x="500" y="480" type="line"/>
    </contour>
  </outline>
</glyph>
<glyph name="v" format="1">
  <advance width="580"/>
  <unicode hex="0076"/>
  <outline>
    <contour>
      <point x="500" y="365" type="line" smooth="yes"/>
      <point x="500" y="218"/>
      <point x="452" y="95"/>
      <point x="333" y="-10" type="curve"/>
      <point x="250" y="-10" type="line"/>
      <point x="132" y="93"/>
      <point x="82" y="215"/>
      <point x="82" y="365" type="curve" smooth="yes"/>
      <point x="82" y="480" type="line"/>
      <point x="169" y="480" type="line"/>
      <point x="169" y="367" type="line" smooth="yes"/>
      <point x="169" y="230"/>
      <point x="211" y="131"/>
      <point x="291" y="58" type="curve"/>
      <point x="370" y="129"/>
      <point x="414" y="228"/>
      <point x="414" y="367" type="curve" smooth="yes"/>
      <point x="414" y="480" type="line"/>
      <point x="500" y="480" type="line"/>
    </contour>
  </outline>
</glyph>
<glyph name="w" format="1">
  <advance width="775"/>
  <unicode hex="0077"/>
  <outline>
    <contour>
      <point x="695" y="67" type="line"/>
      <point x="612" y="17"/>
      <point x="510" y="-10"/>
      <point x="388" y="-10" type="curve" smooth="yes"/>
      <point x="269" y="-10"/>
      <point x="166" y="15"/>
      <point x="80" y="67" type="curve"/>
      <point x="80" y="480" type="line"/>
      <point x="165" y="480" type="line"/>
      <point x="165" y="110" type="line"/>
      <point x="211" y="85"/>
      <point x="258" y="72"/>
      <point x="346" y="69" type="curve"/>
      <point x="346" y="480" type="line"/>
      <point x="430" y="480" type="line"/>
      <point x="430" y="69" type="line"/>
      <point x="516" y="72"/>
      <point x="562" y="85"/>
      <point x="611" y="110" type="curve"/>
      <point x="611" y="480" type="line"/>
      <point x="695" y="480" type="line"/>
    </contour>
  </outline>
</glyph>
<glyph name="x" format="1">
  <advance width="560"/>
  <unicode hex="0078"/>
  <outline>
    <contour>
      <point x="483" y="0" type="line"/>
      <point x="398" y="0" type="line"/>
      <point x="398" y="141" type="line"/>
      <point x="380" y="177"/>
      <point x="339" y="204"/>
      <point x="280" y="204" type="curve" smooth="yes"/>
      <point x="221" y="204"/>
      <point x="180" y="177"/>
      <point x="162" y="141" type="curve"/>
      <point x="162" y="0" type="line"/>
      <point x="77" y="0" type="line"/>
      <point x="77" y="169" type="line"/>
      <point x="109" y="206"/>
      <point x="143" y="226"/>
      <point x="188" y="244" type="curve"/>
      <point x="140" y="262"/>
      <point x="105" y="285"/>
      <point x="82" y="318" type="curve"/>
      <point x="82" y="480" type="line"/>
      <point x="167" y="480" type="line"/>
      <point x="167" y="339" type="line"/>
      <point x="189" y="304"/>
      <point x="228" y="284"/>
      <point x="280" y="284" type="curve" smooth="yes"/>
      <point x="332" y="284"/>
      <point x="371" y="304"/>
      <point x="393" y="339" type="curve"/>
      <point x="393" y="480" type="line"/>
      <point x="478" y="480" type="line"/>
      <point x="478" y="318" type="line"/>
      <point x="455" y="285"/>
      <point x="420" y="262"/>
      <point x="372" y="244" type="curve"/>
      <point x="417" y="226"/>
      <point x="451" y="206"/>
      <point x="483" y="169" type="curve"/>
    </contour>
  </outline>
</glyph>
<glyph name="y" format="1">
  <advance width="580"/>
  <unicode hex="0079"/>
  <outline>
    <contour>
      <point x="500" y="-119" type="line"/>
      <point x="460" y="-155"/>
      <point x="390" y="-185"/>
      <point x="290" y="-185" type="curve" smooth="yes"/>
      <point x="199" y="-185"/>
      <point x="123" y="-161"/>
      <point x="80" y="-124" type="curve"/>
      <point x="80" y="-31" type="line"/>
      <point x="165" y="-31" type="line"/>
      <point x="165" y="-80" type="line"/>
      <point x="192" y="-100"/>
      <point x="229" y="-108"/>
      <point x="290" y="-108" type="curve" smooth="yes"/>
      <point x="351" y="-108"/>
      <point x="387" y="-96"/>
      <point x="415" y="-74" type="curve"/>
      <point x="415" y="21" type="line"/>
      <point x="373" y="0"/>
      <point x="334" y="-10"/>
      <point x="280" y="-10" type="curve" smooth="yes"/>
      <point x="198" y="-10"/>
      <point x="132" y="14"/>
      <point x="80" y="65" type="curve"/>
      <point x="80" y="480" type="line"/>
      <point x="165" y="480" type="line"/>
      <point x="165" y="106" type="line"/>
      <point x="196" y="82"/>
      <point x="242" y="70"/>
      <point x="290" y="70" type="curve" smooth="yes"/>
      <point x="337" y="70"/>
      <point x="384" y="83"/>
      <point x="415" y="106" type="curve"/>
      <point x="415" y="480" type="line"/>
      <point x="500" y="480" type="line"/>
    </contour>
  </outline>
</glyph>
<glyph name="z" format="1">
  <advance width="528"/>
  <unicode hex="007A"/>
  <outline>
    <contour>
      <point x="464" y="0" type="line"/>
      <point x="63" y="0" type="line"/>
      <point x="63" y="67" type="line"/>
      <point x="355" y="403" type="line"/>
      <point x="88" y="403" type="line"/>
      <point x="88" y="480" type="line"/>
      <point x="460" y="480" type="line"/>
      <point x="460" y="410" type="line"/>
      <point x="171" y="78" type="line"/>
      <point x="464" y="78" type="line"/>
    </contour>
  </outline>
</glyph>
<glyph name="braceleft" format="1">
  <advance width="438"/>
  <unicode hex="007B"/>
  <outline>
    <contour>
      <point x="368" y="-21" type="line"/>
      <point x="276" y="-21"/>
      <point x="188" y="23"/>
      <point x="138" y="85" type="curve"/>
      <point x="138" y="267" type="line"/>
      <point x="117" y="298"/>
      <point x="78" y="315"/>
      <point x="35" y="315" type="curve"/>
      <point x="35" y="395" type="line"/>
      <point x="76" y="395"/>
      <point x="116" y="411"/>
      <point x="138" y="443" type="curve"/>
      <point x="138" y="625" type="line"/>
      <point x="188" y="685"/>
      <point x="275" y="730"/>
      <point x="368" y="730" type="curve"/>
      <point x="368" y="641" type="line"/>
      <point x="316" y="639"/>
      <point x="258" y="613"/>
      <point x="228" y="582" type="curve"/>
      <point x="228" y="419" type="line"/>
      <point x="206" y="389"/>
      <point x="172" y="368"/>
      <point x="127" y="355" type="curve"/>
      <point x="170" y="343"/>
      <point x="205" y="322"/>
      <point x="228" y="291" type="curve"/>
      <point x="228" y="128" type="line"/>
      <point x="256" y="98"/>
      <point x="314" y="71"/>
      <point x="368" y="68" type="curve"/>
    </contour>
  </outline>
</glyph>
<glyph name="bar" format="1">
  <advance width="325"/>
  <unicode hex="007C"/>
  <outline>
    <contour>
      <point x="204" y="-175" type="line"/>
      <point x="121" y="-175" type="line"/>
      <point x="121" y="780" type="line"/>
      <point x="204" y="780" type="line"/>
    </contour>
  </outline>
</glyph>
<glyph name="braceright" format="1">
  <advance width="438"/>
  <unicode hex="007D"/>
  <outline>
    <contour>
      <point x="403" y="315" type="line"/>
      <point x="360" y="315"/>
      <point x="321" y="298"/>
      <point x="300" y="267" type="curve"/>
      <point x="300" y="85" type="line"/>
      <point x="250" y="23"/>
      <point x="162" y="-21"/>
      <point x="70" y="-21" type="curve"/>
      <point x="70" y="68" type="line"/>
      <point x="124" y="71"/>
      <point x="182" y="98"/>
      <point x="210" y="128" type="curve"/>
      <point x="210" y="291" type="line"/>
      <point x="233" y="322"/>
      <point x="268" y="343"/>
      <point x="311" y="355" type="curve"/>
      <point x="266" y="368"/>
      <point x="232" y="389"/>
      <point x="210" y="419" type="curve"/>
      <point x="210" y="582" type="line"/>
      <point x="180" y="613"/>
      <point x="122" y="639"/>
      <point x="70" y="641" type="curve"/>
      <point x="70" y="730" type="line"/>
      <point x="163" y="730"/>
      <point x="250" y="685"/>
      <point x="300" y="625" type="curve"/>
      <point x="300" y="443" type="line"/>
      <point x="322" y="411"/>
      <point x="362" y="395"/>
      <point x="403" y="395" type="curve"/>
    </contour>
  </outline>
</glyph>
<glyph name="asciitilde" format="1">
  <advance width="518"/>
  <unicode hex="007E"/>
  <outline>
    <contour>
      <point x="468" y="460" type="line"/>
      <point x="378" y="279" type="line"/>
      <point x="284" y="279" type="line"/>
      <point x="194" y="391" type="line"/>
      <point x="138" y="279" type="line"/>
      <point x="50" y="279" type="line"/>
      <point x="140" y="460" type="line"/>
      <point x="234" y="460" type="line"/>
      <point x="324" y="348" type="line"/>
      <point x="380" y="460" type="line"/>
    </contour>
  </outline>
</glyph>
<glyph name="exclamdown" format="1">
  <advance width="255"/>
  <unicode hex="00A1"/>
  <outline>
    <contour>
      <point x="175" y="610" type="line"/>
      <point x="80" y="610" type="line"/>
      <point x="80" y="720" type="line"/>
      <point x="175" y="720" type="line"/>
    </contour>
    <contour>
      <point x="171" y="0" type="line"/>
      <point x="84" y="0" type="line"/>
      <point x="84" y="515" type="line"/>
      <point x="171" y="515" type="line"/>
    </contour>
  </outline>
</glyph>
<glyph name="cent" format="1">
  <advance width="550"/>
  <unicode hex="00A2"/>
  <outline>
    <contour>
      <point x="483" y="179" type="line"/>
      <point x="440" y="141"/>
      <point x="382" y="119"/>
      <point x="320" y="112" type="curve"/>
      <point x="320" y="0" type="line"/>
      <point x="235" y="0" type="line"/>
      <point x="235" y="112" type="line"/>
      <point x="176" y="119"/>
      <point x="117" y="140"/>
      <point x="73" y="179" type="curve"/>
      <point x="73" y="542" type="line"/>
      <point x="115" y="579"/>
      <point x="173" y="601"/>
      <point x="235" y="608" type="curve"/>
      <point x="235" y="720" type="line"/>
      <point x="320" y="720" type="line"/>
      <point x="320" y="608" type="line"/>
      <point x="380" y="601"/>
      <point x="438" y="580"/>
      <point x="483" y="542" type="curve"/>
      <point x="483" y="431" type="line"/>
      <point x="398" y="431" type="line"/>
      <point x="398" y="502" type="line"/>
      <point x="367" y="524"/>
      <point x="326" y="533"/>
      <point x="278" y="533" type="curve" smooth="yes"/>
      <point x="231" y="533"/>
      <point x="190" y="526"/>
      <point x="158" y="502" type="curve"/>
      <point x="158" y="219" type="line"/>
      <point x="188" y="196"/>
      <point x="229" y="188"/>
      <point x="278" y="187" type="curve" smooth="yes"/>
      <point x="324" y="187"/>
      <point x="365" y="194"/>
      <point x="398" y="219" type="curve"/>
      <point x="398" y="290" type="line"/>
      <point x="483" y="290" type="line"/>
    </contour>
  </outline>
</glyph>
<glyph name="sterling" format="1">
  <advance width="718"/>
  <unicode hex="00A3"/>
  <outline>
    <contour>
      <point x="659" y="0" type="line"/>
      <point x="63" y="0" type="line"/>
      <point x="63" y="85" type="line"/>
      <point x="158" y="85" type="line"/>
      <point x="158" y="305" type="line"/>
      <point x="63" y="305" type="line"/>
      <point x="63" y="390" type="line"/>
      <point x="158" y="390" type="line"/>
      <point x="158" y="651" type="line"/>
      <point x="236" y="706"/>
      <point x="322" y="730"/>
      <point x="408" y="730" type="curve" smooth="yes"/>
      <point x="491" y="730"/>
      <point x="578" y="707"/>
      <point x="658" y="651" type="curve"/>
      <point x="658" y="505" type="line"/>
      <point x="568" y="505" type="line"/>
      <point x="568" y="600" type="line"/>
      <point x="522" y="630"/>
      <point x="472" y="644"/>
      <point x="408" y="644" type="curve" smooth="yes"/>
      <point x="346" y="644"/>
      <point x="297" y="630"/>
      <point x="248" y="600" type="curve"/>
      <point x="248" y="390" type="line"/>
      <point x="484" y="390" type="line"/>
      <point x="484" y="305" type="line"/>
      <point x="248" y="305" type="line"/>
      <point x="248" y="85" type="line"/>
      <point x="659" y="85" type="line"/>
    </contour>
  </outline>
</glyph>
<glyph name="yen" format="1">
  <advance width="750"/>
  <unicode hex="00A5"/>
  <outline>
    <contour>
      <point x="650" y="358" type="line"/>
      <point x="590" y="296"/>
      <point x="499" y="261"/>
      <point x="419" y="251" type="curve"/>
      <point x="419" y="175" type="line"/>
      <point x="575" y="175" type="line"/>
      <point x="575" y="97" type="line"/>
      <point x="419" y="97" type="line"/>
      <point x="419" y="0" type="line"/>
      <point x="331" y="0" type="line"/>
      <point x="331" y="97" type="line"/>
      <point x="175" y="97" type="line"/>
      <point x="175" y="175" type="line"/>
      <point x="331" y="175" type="line"/>
      <point x="331" y="251" type="line"/>
      <point x="254" y="261"/>
      <point x="161" y="295"/>
      <point x="100" y="358" type="curve"/>
      <point x="100" y="720" type="line"/>
      <point x="190" y="720" type="line"/>
      <point x="190" y="399" type="line"/>
      <point x="230" y="354"/>
      <point x="301" y="332"/>
      <point x="375" y="332" type="curve" smooth="yes"/>
      <point x="449" y="332"/>
      <point x="519" y="353"/>
      <point x="560" y="399" type="curve"/>
      <point x="560" y="720" type="line"/>
      <point x="650" y="720" type="line"/>
    </contour>
  </outline>
</glyph>
<glyph name="section" format="1">
  <advance width="740"/>
  <unicode hex="00A7"/>
  <outline>
    <contour>
      <point x="645" y="161" type="line"/>
      <point x="616" y="135"/>
      <point x="576" y="113"/>
      <point x="528" y="98" type="curve"/>
      <point x="630" y="23" type="line"/>
      <point x="630" y="-111" type="line"/>
      <point x="552" y="-163"/>
      <point x="461" y="-185"/>
      <point x="370" y="-185" type="curve" smooth="yes"/>
      <point x="283" y="-185"/>
      <point x="190" y="-164"/>
      <point x="110" y="-111" type="curve"/>
      <point x="110" y="10" type="line"/>
      <point x="200" y="10" type="line"/>
      <point x="200" y="-59" type="line"/>
      <point x="246" y="-87"/>
      <point x="303" y="-99"/>
      <point x="370" y="-99" type="curve" smooth="yes"/>
      <point x="435" y="-99"/>
      <point x="491" y="-87"/>
      <point x="540" y="-59" type="curve"/>
      <point x="540" y="-12" type="line"/>
      <point x="425" y="77" type="line"/>
      <point x="407" y="76"/>
      <point x="389" y="75"/>
      <point x="370" y="75" type="curve" smooth="yes"/>
      <point x="252" y="75"/>
      <point x="153" y="109"/>
      <point x="95" y="161" type="curve"/>
      <point x="95" y="384" type="line"/>
      <point x="124" y="410"/>
      <point x="164" y="432"/>
      <point x="212" y="447" type="curve"/>
      <point x="110" y="522" type="line"/>
      <point x="110" y="656" type="line"/>
      <point x="188" y="708"/>
      <point x="279" y="730"/>
      <point x="370" y="730" type="curve" smooth="yes"/>
      <point x="457" y="730"/>
      <point x="550" y="709"/>
      <point x="630" y="656" type="curve"/>
      <point x="630" y="535" type="line"/>
      <point x="540" y="535" type="line"/>
      <point x="540" y="604" type="line"/>
      <point x="494" y="632"/>
      <point x="437" y="644"/>
      <point x="370" y="644" type="curve" smooth="yes"/>
      <point x="305" y="644"/>
      <point x="249" y="632"/>
      <point x="200" y="604" type="curve"/>
      <point x="200" y="557" type="line"/>
      <point x="315" y="467" type="line"/>
      <point x="333" y="469"/>
      <point x="351" y="470"/>
      <point x="370" y="470" type="curve" smooth="yes"/>
      <point x="488" y="470"/>
      <point x="587" y="436"/>
      <point x="645" y="384" type="curve"/>
    </contour>
    <contour>
      <point x="558" y="201" type="curve"/>
      <point x="558" y="344" type="line"/>
      <point x="519" y="372"/>
      <point x="447" y="392"/>
      <point x="370" y="392" type="curve" smooth="yes"/>
      <point x="293" y="392"/>
      <point x="221" y="372"/>
      <point x="182" y="344" type="curve"/>
      <point x="182" y="201" type="line"/>
      <point x="221" y="173"/>
      <point x="293" y="153"/>
      <point x="370" y="153" type="curve" smooth="yes"/>
      <point x="447" y="153"/>
      <point x="519" y="173"/>
    </contour>
  </outline>
</glyph>
<glyph name="dieresis" format="1">
  <advance width="500"/>
  <unicode hex="00A8"/>
  <outline>
    <contour>
      <point x="400" y="555" type="line"/>
      <point x="305" y="555" type="line"/>
      <point x="305" y="665" type="line"/>
      <point x="400" y="665" type="line"/>
    </contour>
    <contour>
      <point x="195" y="555" type="line"/>
      <point x="100" y="555" type="line"/>
      <point x="100" y="665" type="line"/>
      <point x="195" y="665" type="line"/>
    </contour>
  </outline>
</glyph>
<glyph name="copyright" format="1">
  <advance width="860"/>
  <unicode hex="00A9"/>
  <outline>
    <contour>
      <point x="765" y="103" type="line"/>
      <point x="676" y="27"/>
      <point x="561" y="-10"/>
      <point x="430" y="-10" type="curve" smooth="yes"/>
      <point x="296" y="-10"/>
      <point x="183" y="28"/>
      <point x="95" y="103" type="curve"/>
      <point x="95" y="617" type="line"/>
      <point x="183" y="692"/>
      <point x="296" y="730"/>
      <point x="430" y="730" type="curve" smooth="yes"/>
      <point x="561" y="730"/>
      <point x="676" y="693"/>
      <point x="765" y="617" type="curve"/>
    </contour>
    <contour>
      <point x="695" y="137" type="curve"/>
      <point x="695" y="583" type="line"/>
      <point x="629" y="635"/>
      <point x="536" y="664"/>
      <point x="430" y="664" type="curve" smooth="yes"/>
      <point x="327" y="664"/>
      <point x="233" y="637"/>
      <point x="165" y="583" type="curve"/>
      <point x="165" y="137" type="line"/>
      <point x="233" y="83"/>
      <point x="327" y="56"/>
      <point x="430" y="56" type="curve" smooth="yes"/>
      <point x="536" y="56"/>
      <point x="629" y="85"/>
    </contour>
    <contour>
      <point x="594" y="210" type="line"/>
      <point x="544" y="170"/>
      <point x="483" y="154"/>
      <point x="427" y="154" type="curve" smooth="yes"/>
      <point x="372" y="154"/>
      <point x="313" y="169"/>
      <point x="260" y="210" type="curve"/>
      <point x="260" y="514" type="line"/>
      <point x="311" y="554"/>
      <point x="370" y="570"/>
      <point x="427" y="570" type="curve" smooth="yes"/>
      <point x="481" y="570"/>
      <point x="542" y="555"/>
      <point x="594" y="514" type="curve"/>
      <point x="594" y="437" type="line"/>
      <point x="535" y="437" type="line"/>
      <point x="535" y="482" type="line"/>
      <point x="504" y="502"/>
      <point x="466" y="513"/>
      <point x="427" y="513" type="curve" smooth="yes"/>
      <point x="389" y="513"/>
      <point x="352" y="503"/>
      <point x="319" y="482" type="curve"/>
      <point x="319" y="243" type="line"/>
      <point x="350" y="222"/>
      <point x="388" y="211"/>
      <point x="427" y="211" type="curve" smooth="yes"/>
      <point x="465" y="211"/>
      <point x="503" y="221"/>
      <point x="535" y="243" type="curve"/>
      <point x="535" y="287" type="line"/>
      <point x="594" y="287" type="line"/>
    </contour>
  </outline>
</glyph>
<glyph name="ordfeminine" format="1">
  <advance width="535"/>
  <unicode hex="00AA"/>
  <outline>
    <contour>
      <point x="436" y="363" type="line"/>
      <point x="392" y="330"/>
      <point x="343" y="311"/>
      <point x="268" y="311" type="curve" smooth="yes"/>
      <point x="196" y="311"/>
      <point x="146" y="328"/>
      <point x="100" y="363" type="curve"/>
      <point x="100" y="515" type="line"/>
      <point x="138" y="546"/>
      <point x="195" y="566"/>
      <point x="260" y="566" type="curve" smooth="yes"/>
      <point x="298" y="566"/>
      <point x="331" y="560"/>
      <point x="365" y="548" type="curve"/>
      <point x="365" y="641" type="line"/>
      <point x="340" y="657"/>
      <point x="311" y="664"/>
      <point x="270" y="664" type="curve" smooth="yes"/>
      <point x="232" y="664"/>
      <point x="206" y="659"/>
      <point x="179" y="645" type="curve"/>
      <point x="179" y="597" type="line"/>
      <point x="105" y="597" type="line"/>
      <point x="105" y="683" type="line"/>
      <point x="149" y="715"/>
      <point x="208" y="730"/>
      <point x="270" y="730" type="curve" smooth="yes"/>
      <point x="332" y="730"/>
      <point x="390" y="713"/>
      <point x="436" y="678" type="curve"/>
    </contour>
    <contour>
      <point x="365" y="400" type="curve"/>
      <point x="365" y="481" type="line"/>
      <point x="345" y="491"/>
      <point x="308" y="501"/>
      <point x="268" y="501" type="curve" smooth="yes"/>
      <point x="226" y="502"/>
      <point x="199" y="496"/>
      <point x="170" y="477" type="curve"/>
      <point x="170" y="400" type="line"/>
      <point x="192" y="386"/>
      <point x="225" y="378"/>
      <point x="268" y="377" type="curve" smooth="yes"/>
      <point x="310" y="377"/>
      <point x="342" y="385"/>
    </contour>
  </outline>
</glyph>
<glyph name="guillemotleft" format="1">
  <advance width="625"/>
  <unicode hex="00AB"/>
  <outline>
    <contour>
      <point x="555" y="-10" type="line"/>
      <point x="325" y="203" type="line"/>
      <point x="325" y="278" type="line"/>
      <point x="555" y="490" type="line"/>
      <point x="555" y="378" type="line"/>
      <point x="399" y="240" type="line"/>
      <point x="555" y="103" type="line"/>
    </contour>
    <contour>
      <point x="285" y="-10" type="line"/>
      <point x="55" y="203" type="line"/>
      <point x="55" y="278" type="line"/>
      <point x="285" y="490" type="line"/>
      <point x="285" y="378" type="line"/>
      <point x="129" y="240" type="line"/>
      <point x="285" y="103" type="line"/>
    </contour>
  </outline>
</glyph>
<glyph name="macron" format="1">
  <advance width="500"/>
  <unicode hex="00AF"/>
  <unicode hex="02C9"/>
  <outline>
    <contour>
      <point x="408" y="565" type="line"/>
      <point x="93" y="565" type="line"/>
      <point x="93" y="650" type="line"/>
      <point x="408" y="650" type="line"/>
    </contour>
  </outline>
</glyph>
<glyph name="degree" format="1">
  <advance width="555"/>
  <unicode hex="00B0"/>
  <outline>
    <contour>
      <point x="473" y="388" type="line"/>
      <point x="430" y="343"/>
      <point x="357" y="311"/>
      <point x="278" y="311" type="curve" smooth="yes"/>
      <point x="199" y="311"/>
      <point x="126" y="343"/>
      <point x="83" y="388" type="curve"/>
      <point x="83" y="653" type="line"/>
      <point x="126" y="698"/>
      <point x="199" y="730"/>
      <point x="278" y="730" type="curve" smooth="yes"/>
      <point x="357" y="730"/>
      <point x="430" y="698"/>
      <point x="473" y="653" type="curve"/>
    </contour>
    <contour>
      <point x="393" y="423" type="curve"/>
      <point x="393" y="618" type="line"/>
      <point x="363" y="645"/>
      <point x="325" y="658"/>
      <point x="278" y="658" type="curve" smooth="yes"/>
      <point x="231" y="658"/>
      <point x="192" y="645"/>
      <point x="162" y="618" type="curve"/>
      <point x="162" y="423" type="line"/>
      <point x="192" y="396"/>
      <point x="231" y="383"/>
      <point x="278" y="383" type="curve" smooth="yes"/>
      <point x="325" y="383"/>
      <point x="363" y="396"/>
    </contour>
  </outline>
</glyph>
<glyph name="acute" format="1">
  <advance width="500"/>
  <unicode hex="00B4"/>
  <outline>
    <contour>
      <point x="361" y="720" type="line"/>
      <point x="240" y="555" type="line"/>
      <point x="139" y="555" type="line"/>
      <point x="250" y="720" type="line"/>
    </contour>
  </outline>
</glyph>
<glyph name="paragraph" format="1">
  <advance width="739"/>
  <unicode hex="00B6"/>
  <outline>
    <contour>
      <point x="629" y="0" type="line"/>
      <point x="541" y="0" type="line"/>
      <point x="541" y="639" type="line"/>
      <point x="460" y="639" type="line"/>
      <point x="460" y="0" type="line"/>
      <point x="372" y="0" type="line"/>
      <point x="372" y="270" type="line"/>
      <point x="362" y="270" type="line" smooth="yes"/>
      <point x="200" y="270"/>
      <point x="131" y="311"/>
      <point x="62" y="392" type="curve"/>
      <point x="62" y="599" type="line"/>
      <point x="131" y="681"/>
      <point x="201" y="720"/>
      <point x="362" y="720" type="curve" smooth="yes"/>
      <point x="629" y="720" type="line"/>
    </contour>
    <contour>
      <point x="372" y="351" type="line"/>
      <point x="372" y="639" type="line"/>
      <point x="359" y="639" type="line" smooth="yes"/>
      <point x="249" y="639"/>
      <point x="195" y="616"/>
      <point x="149" y="563" type="curve"/>
      <point x="149" y="428" type="line"/>
      <point x="198" y="373"/>
      <point x="252" y="351"/>
      <point x="359" y="351" type="curve" smooth="yes"/>
    </contour>
  </outline>
</glyph>
<glyph name="periodcentered" format="1">
  <advance width="255"/>
  <unicode hex="00B7"/>
  <unicode hex="2219"/>
  <outline>
    <contour>
      <point x="175" y="241" type="line"/>
      <point x="80" y="241" type="line"/>
      <point x="80" y="351" type="line"/>
      <point x="175" y="351" type="line"/>
    </contour>
  </outline>
</glyph>
<glyph name="cedilla" format="1">
  <advance width="500"/>
  <unicode hex="00B8"/>
  <outline>
    <contour>
      <point x="293" y="-99" type="line"/>
      <point x="258" y="-147"/>
      <point x="200" y="-160"/>
      <point x="143" y="-160" type="curve" smooth="yes"/>
      <point x="133" y="-160" type="line"/>
      <point x="133" y="-86" type="line"/>
      <point x="143" y="-86" type="line" smooth="yes"/>
      <point x="173" y="-86"/>
      <point x="199" y="-81"/>
      <point x="214" y="-64" type="curve"/>
      <point x="214" y="10" type="line"/>
      <point x="293" y="10" type="line"/>
    </contour>
  </outline>
</glyph>
<glyph name="ordmasculine" format="1">
  <advance width="535"/>
  <unicode hex="00BA"/>
  <outline>
    <contour>
      <point x="448" y="381" type="line"/>
      <point x="414" y="344"/>
      <point x="353" y="311"/>
      <point x="268" y="311" type="curve" smooth="yes"/>
      <point x="187" y="311"/>
      <point x="123" y="342"/>
      <point x="88" y="381" type="curve"/>
      <point x="88" y="662" type="line"/>
      <point x="121" y="699"/>
      <point x="184" y="730"/>
      <point x="268" y="730" type="curve" smooth="yes"/>
      <point x="350" y="730"/>
      <point x="412" y="700"/>
      <point x="448" y="662" type="curve"/>
    </contour>
    <contour>
      <point x="375" y="414" type="curve"/>
      <point x="375" y="628" type="line"/>
      <point x="353" y="647"/>
      <point x="315" y="662"/>
      <point x="268" y="662" type="curve" smooth="yes"/>
      <point x="223" y="662"/>
      <point x="185" y="647"/>
      <point x="162" y="628" type="curve"/>
      <point x="162" y="414" type="line"/>
      <point x="183" y="395"/>
      <point x="221" y="379"/>
      <point x="268" y="379" type="curve" smooth="yes"/>
      <point x="314" y="379"/>
      <point x="351" y="394"/>
    </contour>
  </outline>
</glyph>
<glyph name="guillemotright" format="1">
  <advance width="625"/>
  <unicode hex="00BB"/>
  <outline>
    <contour>
      <point x="570" y="203" type="line"/>
      <point x="340" y="-10" type="line"/>
      <point x="340" y="103" type="line"/>
      <point x="496" y="240" type="line"/>
      <point x="340" y="378" type="line"/>
      <point x="340" y="490" type="line"/>
      <point x="570" y="278" type="line"/>
    </contour>
    <contour>
      <point x="300" y="203" type="line"/>
      <point x="70" y="-10" type="line"/>
      <point x="70" y="103" type="line"/>
      <point x="226" y="240" type="line"/>
      <point x="70" y="378" type="line"/>
      <point x="70" y="490" type="line"/>
      <point x="300" y="278" type="line"/>
    </contour>
  </outline>
</glyph>
<glyph name="questiondown" format="1">
  <advance width="630"/>
  <unicode hex="00BF"/>
  <outline>
    <contour>
      <point x="361" y="610" type="line"/>
      <point x="266" y="610" type="line"/>
      <point x="266" y="720" type="line"/>
      <point x="361" y="720" type="line"/>
    </contour>
    <contour>
      <point x="576" y="78" type="line"/>
      <point x="496" y="15"/>
      <point x="403" y="-10"/>
      <point x="316" y="-10" type="curve" smooth="yes"/>
      <point x="225" y="-10"/>
      <point x="134" y="17"/>
      <point x="56" y="78" type="curve"/>
      <point x="56" y="260" type="line"/>
      <point x="268" y="432" type="line"/>
      <point x="268" y="525" type="line"/>
      <point x="358" y="525" type="line"/>
      <point x="358" y="404" type="line"/>
      <point x="146" y="233" type="line"/>
      <point x="146" y="126" type="line"/>
      <point x="195" y="90"/>
      <point x="251" y="74"/>
      <point x="316" y="74" type="curve" smooth="yes"/>
      <point x="383" y="74"/>
      <point x="440" y="90"/>
      <point x="486" y="126" type="curve"/>
      <point x="486" y="215" type="line"/>
      <point x="576" y="215" type="line"/>
    </contour>
  </outline>
</glyph>
<glyph name="Aring" format="1">
  <advance width="750"/>
  <unicode hex="00C5"/>
  <outline>
    <contour>
      <point x="650" y="0" type="line"/>
      <point x="560" y="0" type="line"/>
      <point x="560" y="268" type="line"/>
      <point x="190" y="268" type="line"/>
      <point x="190" y="0" type="line"/>
      <point x="100" y="0" type="line"/>
      <point x="100" y="621" type="line"/>
      <point x="166" y="690"/>
      <point x="271" y="730"/>
      <point x="375" y="730" type="curve" smooth="yes"/>
      <point x="480" y="730"/>
      <point x="585" y="690"/>
      <point x="650" y="621" type="curve"/>
    </contour>
    <contour>
      <point x="560" y="354" type="line"/>
      <point x="560" y="578" type="line"/>
      <point x="512" y="622"/>
      <point x="445" y="644"/>
      <point x="375" y="644" type="curve" smooth="yes"/>
      <point x="305" y="644"/>
      <point x="239" y="622"/>
      <point x="190" y="578" type="curve"/>
      <point x="190" y="354" type="line"/>
    </contour>
    <contour>
      <point x="523" y="815" type="line"/>
      <point x="488" y="786"/>
      <point x="433" y="770"/>
      <point x="375" y="770" type="curve" smooth="yes"/>
      <point x="317" y="770"/>
      <point x="262" y="786"/>
      <point x="227" y="815" type="curve"/>
      <point x="227" y="895" type="line"/>
      <point x="262" y="924"/>
      <point x="317" y="940"/>
      <point x="375" y="940" type="curve" smooth="yes"/>
      <point x="433" y="940"/>
      <point x="488" y="924"/>
      <point x="523" y="895" type="curve"/>
    </contour>
    <contour>
      <point x="463" y="838" type="curve"/>
      <point x="463" y="872" type="line"/>
      <point x="442" y="885"/>
      <point x="409" y="891"/>
      <point x="375" y="891" type="curve" smooth="yes"/>
      <point x="341" y="891"/>
      <point x="308" y="885"/>
      <point x="287" y="872" type="curve"/>
      <point x="287" y="838" type="line"/>
      <point x="308" y="825"/>
      <point x="341" y="819"/>
      <point x="375" y="819" type="curve" smooth="yes"/>
      <point x="409" y="819"/>
      <point x="442" y="825"/>
    </contour>
  </outline>
</glyph>
<glyph name="AE" format="1">
  <advance width="1213"/>
  <unicode hex="00C6"/>
  <outline>
    <contour>
      <point x="1120" y="73" type="line"/>
      <point x="1033" y="16"/>
      <point x="933" y="-10"/>
      <point x="835" y="-10" type="curve" smooth="yes"/>
      <point x="734" y="-10"/>
      <point x="632" y="27"/>
      <point x="560" y="81" type="curve"/>
      <point x="560" y="268" type="line"/>
      <point x="190" y="268" type="line"/>
      <point x="190" y="0" type="line"/>
      <point x="100" y="0" type="line"/>
      <point x="100" y="621" type="line"/>
      <point x="166" y="690"/>
      <point x="271" y="730"/>
      <point x="375" y="730" type="curve" smooth="yes"/>
      <point x="456" y="730"/>
      <point x="537" y="707"/>
      <point x="600" y="664" type="curve"/>
      <point x="660" y="701"/>
      <point x="747" y="730"/>
      <point x="835" y="730" type="curve" smooth="yes"/>
      <point x="932" y="730"/>
      <point x="1031" y="706"/>
      <point x="1120" y="647" type="curve"/>
      <point x="1120" y="505" type="line"/>
      <point x="1030" y="505" type="line"/>
      <point x="1030" y="592" type="line"/>
      <point x="973" y="626"/>
      <point x="910" y="644"/>
      <point x="835" y="644" type="curve" smooth="yes"/>
      <point x="760" y="644"/>
      <point x="700" y="622"/>
      <point x="650" y="590" type="curve"/>
      <point x="650" y="414" type="line"/>
      <point x="955" y="414" type="line"/>
      <point x="955" y="330" type="line"/>
      <point x="650" y="330" type="line"/>
      <point x="650" y="130" type="line"/>
      <point x="700" y="98"/>
      <point x="760" y="76"/>
      <point x="835" y="76" type="curve" smooth="yes"/>
      <point x="908" y="76"/>
      <point x="970" y="92"/>
      <point x="1030" y="129" type="curve"/>
      <point x="1030" y="215" type="line"/>
      <point x="1120" y="215" type="line"/>
    </contour>
    <contour>
      <point x="560" y="352" type="line"/>
      <point x="560" y="578" type="line"/>
      <point x="512" y="622"/>
      <point x="445" y="644"/>
      <point x="375" y="644" type="curve" smooth="yes"/>
      <point x="305" y="644"/>
      <point x="239" y="622"/>
      <point x="190" y="578" type="curve"/>
      <point x="190" y="352" type="line"/>
    </contour>
  </outline>
</glyph>
<glyph name="Ccedilla" format="1">
  <advance width="780"/>
  <unicode hex="00C7"/>
  <outline>
    <contour>
      <point x="685" y="88" type="line"/>
      <point x="611" y="29"/>
      <point x="520" y="-1"/>
      <point x="431" y="-8" type="curve"/>
      <point x="431" y="-99" type="line"/>
      <point x="396" y="-147"/>
      <point x="338" y="-160"/>
      <point x="281" y="-160" type="curve" smooth="yes"/>
      <point x="271" y="-160" type="line"/>
      <point x="271" y="-86" type="line"/>
      <point x="281" y="-86" type="line" smooth="yes"/>
      <point x="311" y="-86"/>
      <point x="337" y="-81"/>
      <point x="352" y="-64" type="curve"/>
      <point x="352" y="-9" type="line"/>
      <point x="265" y="-2"/>
      <point x="174" y="28"/>
      <point x="95" y="88" type="curve"/>
      <point x="95" y="632" type="line"/>
      <point x="182" y="700"/>
      <point x="289" y="730"/>
      <point x="390" y="730" type="curve" smooth="yes"/>
      <point x="487" y="730"/>
      <point x="596" y="702"/>
      <point x="685" y="632" type="curve"/>
      <point x="685" y="505" type="line"/>
      <point x="595" y="505" type="line"/>
      <point x="595" y="583" type="line"/>
      <point x="538" y="623"/>
      <point x="465" y="644"/>
      <point x="390" y="644" type="curve" smooth="yes"/>
      <point x="318" y="644"/>
      <point x="246" y="625"/>
      <point x="185" y="583" type="curve"/>
      <point x="185" y="138" type="line"/>
      <point x="242" y="97"/>
      <point x="315" y="76"/>
      <point x="390" y="76" type="curve" smooth="yes"/>
      <point x="463" y="76"/>
      <point x="535" y="95"/>
      <point x="595" y="138" type="curve"/>
      <point x="595" y="215" type="line"/>
      <point x="685" y="215" type="line"/>
    </contour>
  </outline>
</glyph>
<glyph name="Eth" format="1">
  <advance width="818"/>
  <unicode hex="00D0"/>
  <outline>
    <contour>
      <point x="723" y="142" type="line"/>
      <point x="658" y="62"/>
      <point x="554" y="0"/>
      <point x="383" y="0" type="curve" smooth="yes"/>
      <point x="130" y="0" type="line"/>
      <point x="130" y="328" type="line"/>
      <point x="50" y="328" type="line"/>
      <point x="50" y="414" type="line"/>
      <point x="130" y="414" type="line"/>
      <point x="130" y="720" type="line"/>
      <point x="383" y="720" type="line" smooth="yes"/>
      <point x="551" y="720"/>
      <point x="654" y="661"/>
      <point x="723" y="579" type="curve"/>
    </contour>
    <contour>
      <point x="633" y="183" type="curve"/>
      <point x="633" y="538" type="line"/>
      <point x="584" y="594"/>
      <point x="497" y="634"/>
      <point x="383" y="634" type="curve" smooth="yes"/>
      <point x="220" y="634" type="line"/>
      <point x="220" y="414" type="line"/>
      <point x="350" y="414" type="line"/>
      <point x="350" y="328" type="line"/>
      <point x="220" y="328" type="line"/>
      <point x="220" y="86" type="line"/>
      <point x="383" y="86" type="line" smooth="yes"/>
      <point x="495" y="86"/>
      <point x="583" y="125"/>
    </contour>
  </outline>
</glyph>
<glyph name="Oslash" format="1">
  <advance width="820"/>
  <unicode hex="00D8"/>
  <outline>
    <contour>
      <point x="725" y="104" type="line"/>
      <point x="638" y="29"/>
      <point x="532" y="-10"/>
      <point x="410" y="-10" type="curve" smooth="yes"/>
      <point x="364" y="-10"/>
      <point x="320" y="-4"/>
      <point x="279" y="7" type="curve"/>
      <point x="240" y="-70" type="line"/>
      <point x="148" y="-70" type="line"/>
      <point x="201" y="35" type="line"/>
      <point x="164" y="53"/>
      <point x="129" y="76"/>
      <point x="95" y="104" type="curve"/>
      <point x="95" y="617" type="line"/>
      <point x="183" y="692"/>
      <point x="286" y="730"/>
      <point x="410" y="730" type="curve" smooth="yes"/>
      <point x="456" y="730"/>
      <point x="500" y="725"/>
      <point x="542" y="714" type="curve"/>
      <point x="580" y="790" type="line"/>
      <point x="672" y="790" type="line"/>
      <point x="620" y="685" type="line"/>
      <point x="657" y="668"/>
      <point x="692" y="645"/>
      <point x="725" y="617" type="curve"/>
    </contour>
    <contour>
      <point x="635" y="147" type="curve"/>
      <point x="635" y="574" type="line"/>
      <point x="619" y="587"/>
      <point x="600" y="599"/>
      <point x="581" y="608" type="curve"/>
      <point x="317" y="83" type="line"/>
      <point x="346" y="77"/>
      <point x="377" y="73"/>
      <point x="410" y="73" type="curve" smooth="yes"/>
      <point x="500" y="73"/>
      <point x="576" y="100"/>
    </contour>
    <contour>
      <point x="503" y="637" type="line"/>
      <point x="474" y="643"/>
      <point x="443" y="647"/>
      <point x="410" y="647" type="curve" smooth="yes"/>
      <point x="321" y="647"/>
      <point x="245" y="620"/>
      <point x="185" y="574" type="curve"/>
      <point x="185" y="147" type="line"/>
      <point x="202" y="134"/>
      <point x="220" y="122"/>
      <point x="239" y="112" type="curve"/>
    </contour>
  </outline>
</glyph>
<glyph name="Thorn" format="1">
  <advance width="695"/>
  <unicode hex="00DE"/>
  <outline>
    <contour>
      <point x="633" y="277" type="line"/>
      <point x="564" y="196"/>
      <point x="495" y="155"/>
      <point x="333" y="155" type="curve" smooth="yes"/>
      <point x="200" y="155" type="line"/>
      <point x="200" y="0" type="line"/>
      <point x="110" y="0" type="line"/>
      <point x="110" y="720" type="line"/>
      <point x="200" y="720" type="line"/>
      <point x="200" y="585" type="line"/>
      <point x="333" y="585" type="line" smooth="yes"/>
      <point x="494" y="585"/>
      <point x="564" y="546"/>
      <point x="633" y="464" type="curve"/>
    </contour>
    <contour>
      <point x="543" y="318" type="curve"/>
      <point x="543" y="423" type="line"/>
      <point x="497" y="476"/>
      <point x="443" y="499"/>
      <point x="333" y="499" type="curve" smooth="yes"/>
      <point x="200" y="499" type="line"/>
      <point x="200" y="241" type="line"/>
      <point x="333" y="241" type="line" smooth="yes"/>
      <point x="440" y="241"/>
      <point x="494" y="263"/>
    </contour>
  </outline>
</glyph>
<glyph name="germandbls" format="1">
  <advance width="555"/>
  <unicode hex="00DF"/>
  <outline>
    <contour>
      <point x="493" y="82" type="line"/>
      <point x="446" y="23"/>
      <point x="369" y="-3"/>
      <point x="268" y="-5" type="curve"/>
      <point x="268" y="72" type="line"/>
      <point x="317" y="72"/>
      <point x="377" y="85"/>
      <point x="408" y="116" type="curve"/>
      <point x="408" y="239" type="line"/>
      <point x="379" y="293"/>
      <point x="312" y="333"/>
      <point x="223" y="333" type="curve" smooth="yes"/>
      <point x="173" y="333" type="line"/>
      <point x="173" y="0" type="line"/>
      <point x="88" y="0" type="line"/>
      <point x="88" y="659" type="line"/>
      <point x="124" y="695"/>
      <point x="193" y="725"/>
      <point x="283" y="725" type="curve" smooth="yes"/>
      <point x="370" y="725"/>
      <point x="440" y="695"/>
      <point x="478" y="659" type="curve"/>
      <point x="478" y="467" type="line"/>
      <point x="449" y="427"/>
      <point x="402" y="392"/>
      <point x="342" y="371" type="curve"/>
      <point x="406" y="352"/>
      <point x="453" y="326"/>
      <point x="493" y="274" type="curve"/>
    </contour>
    <contour>
      <point x="393" y="498" type="curve"/>
      <point x="393" y="621" type="line"/>
      <point x="370" y="636"/>
      <point x="336" y="648"/>
      <point x="283" y="648" type="curve" smooth="yes"/>
      <point x="232" y="648"/>
      <point x="197" y="637"/>
      <point x="173" y="621" type="curve"/>
      <point x="173" y="409" type="line"/>
      <point x="223" y="409" type="line" smooth="yes"/>
      <point x="294" y="409"/>
      <point x="357" y="441"/>
    </contour>
  </outline>
</glyph>
<glyph name="ae" format="1">
  <advance width="838"/>
  <unicode hex="00E6"/>
  <outline>
    <contour>
      <point x="766" y="59" type="line"/>
      <point x="713" y="13"/>
      <point x="647" y="-10"/>
      <point x="571" y="-10" type="curve" smooth="yes"/>
      <point x="516" y="-10"/>
      <point x="465" y="5"/>
      <point x="421" y="31" type="curve"/>
      <point x="379" y="6"/>
      <point x="330" y="-10"/>
      <point x="263" y="-10" type="curve" smooth="yes"/>
      <point x="177" y="-10"/>
      <point x="122" y="9"/>
      <point x="68" y="52" type="curve"/>
      <point x="68" y="233" type="line"/>
      <point x="113" y="270"/>
      <point x="176" y="294"/>
      <point x="252" y="294" type="curve" smooth="yes"/>
      <point x="300" y="294"/>
      <point x="336" y="287"/>
      <point x="376" y="272" type="curve"/>
      <point x="376" y="387" type="line"/>
      <point x="346" y="407"/>
      <point x="315" y="415"/>
      <point x="265" y="415" type="curve" smooth="yes"/>
      <point x="219" y="415"/>
      <point x="191" y="410"/>
      <point x="158" y="392" type="curve"/>
      <point x="158" y="334" type="line"/>
      <point x="73" y="334" type="line"/>
      <point x="73" y="435" type="line"/>
      <point x="126" y="473"/>
      <point x="190" y="490"/>
      <point x="265" y="490" type="curve" smooth="yes"/>
      <point x="323" y="490"/>
      <point x="376" y="474"/>
      <point x="423" y="447" type="curve"/>
      <point x="463" y="473"/>
      <point x="512" y="490"/>
      <point x="570" y="490" type="curve" smooth="yes"/>
      <point x="650" y="490"/>
      <point x="715" y="464"/>
      <point x="765" y="416" type="curve"/>
      <point x="765" y="205" type="line"/>
      <point x="457" y="205" type="line"/>
      <point x="457" y="99" type="line"/>
      <point x="488" y="76"/>
      <point x="528" y="68"/>
      <point x="571" y="67" type="curve" smooth="yes"/>
      <point x="612" y="67"/>
      <point x="648" y="74"/>
      <point x="681" y="99" type="curve"/>
      <point x="681" y="155" type="line"/>
      <point x="766" y="155" type="line"/>
    </contour>
    <contour>
      <point x="682" y="276" type="line"/>
      <point x="682" y="377" type="line"/>
      <point x="654" y="399"/>
      <point x="619" y="413"/>
      <point x="570" y="413" type="curve" smooth="yes"/>
      <point x="523" y="413"/>
      <point x="488" y="401"/>
      <point x="457" y="377" type="curve"/>
      <point x="457" y="276" type="line"/>
    </contour>
    <contour>
      <point x="376" y="93" type="curve"/>
      <point x="376" y="196" type="line"/>
      <point x="352" y="209"/>
      <point x="307" y="221"/>
      <point x="263" y="221" type="curve" smooth="yes"/>
      <point x="217" y="222"/>
      <point x="182" y="215"/>
      <point x="148" y="191" type="curve"/>
      <point x="148" y="93" type="line"/>
      <point x="174" y="75"/>
      <point x="208" y="66"/>
      <point x="263" y="65" type="curve" smooth="yes"/>
      <point x="316" y="65"/>
      <point x="349" y="74"/>
    </contour>
  </outline>
</glyph>
<glyph name="ccedilla" format="1">
  <advance width="550"/>
  <unicode hex="00E7"/>
  <outline>
    <contour>
      <point x="483" y="59" type="line"/>
      <point x="439" y="21"/>
      <point x="381" y="-1"/>
      <point x="319" y="-8" type="curve"/>
      <point x="319" y="-99" type="line"/>
      <point x="284" y="-147"/>
      <point x="226" y="-160"/>
      <point x="169" y="-160" type="curve" smooth="yes"/>
      <point x="159" y="-160" type="line"/>
      <point x="159" y="-86" type="line"/>
      <point x="169" y="-86" type="line" smooth="yes"/>
      <point x="199" y="-86"/>
      <point x="225" y="-81"/>
      <point x="240" y="-64" type="curve"/>
      <point x="240" y="-8" type="line"/>
      <point x="179" y="-2"/>
      <point x="118" y="18"/>
      <point x="73" y="59" type="curve"/>
      <point x="73" y="422" type="line"/>
      <point x="125" y="467"/>
      <point x="201" y="490"/>
      <point x="278" y="490" type="curve" smooth="yes"/>
      <point x="351" y="490"/>
      <point x="428" y="469"/>
      <point x="483" y="422" type="curve"/>
      <point x="483" y="311" type="line"/>
      <point x="398" y="311" type="line"/>
      <point x="398" y="379" type="line"/>
      <point x="367" y="401"/>
      <point x="326" y="410"/>
      <point x="278" y="410" type="curve" smooth="yes"/>
      <point x="231" y="410"/>
      <point x="190" y="403"/>
      <point x="158" y="379" type="curve"/>
      <point x="158" y="102" type="line"/>
      <point x="188" y="79"/>
      <point x="229" y="71"/>
      <point x="278" y="70" type="curve" smooth="yes"/>
      <point x="324" y="70"/>
      <point x="365" y="77"/>
      <point x="398" y="102" type="curve"/>
      <point x="398" y="170" type="line"/>
      <point x="483" y="170" type="line"/>
    </contour>
  </outline>
</glyph>
<glyph name="oslash" format="1">
  <advance width="575"/>
  <unicode hex="00F8"/>
  <outline>
    <contour>
      <point x="503" y="73" type="line"/>
      <point x="462" y="29"/>
      <point x="388" y="-10"/>
      <point x="288" y="-10" type="curve" smooth="yes"/>
      <point x="258" y="-10"/>
      <point x="230" y="-7"/>
      <point x="204" y="0" type="curve"/>
      <point x="168" y="-70" type="line"/>
      <point x="86" y="-70" type="line"/>
      <point x="135" y="25" type="line"/>
      <point x="110" y="39"/>
      <point x="89" y="55"/>
      <point x="73" y="73" type="curve"/>
      <point x="73" y="408" type="line"/>
      <point x="113" y="452"/>
      <point x="188" y="490"/>
      <point x="288" y="490" type="curve" smooth="yes"/>
      <point x="318" y="490"/>
      <point x="346" y="487"/>
      <point x="371" y="480" type="curve"/>
      <point x="408" y="550" type="line"/>
      <point x="490" y="550" type="line"/>
      <point x="440" y="455" type="line"/>
      <point x="465" y="442"/>
      <point x="486" y="426"/>
      <point x="503" y="408" type="curve"/>
    </contour>
    <contour>
      <point x="418" y="111" type="curve"/>
      <point x="418" y="370" type="line"/>
      <point x="414" y="374"/>
      <point x="409" y="378"/>
      <point x="403" y="382" type="curve"/>
      <point x="241" y="70" type="line"/>
      <point x="255" y="68"/>
      <point x="271" y="66"/>
      <point x="288" y="66" type="curve" smooth="yes"/>
      <point x="345" y="66"/>
      <point x="390" y="85"/>
    </contour>
    <contour>
      <point x="335" y="410" type="line"/>
      <point x="321" y="412"/>
      <point x="305" y="414"/>
      <point x="288" y="414" type="curve" smooth="yes"/>
      <point x="231" y="414"/>
      <point x="185" y="396"/>
      <point x="158" y="370" type="curve"/>
      <point x="158" y="111" type="line"/>
      <point x="162" y="107"/>
      <point x="168" y="102"/>
      <point x="173" y="98" type="curve"/>
    </contour>
  </outline>
</glyph>
<glyph name="dotlessi" format="1">
  <advance width="270"/>
  <unicode hex="0131"/>
  <outline>
    <contour>
      <point x="178" y="0" type="line"/>
      <point x="93" y="0" type="line"/>
      <point x="93" y="480" type="line"/>
      <point x="178" y="480" type="line"/>
    </contour>
  </outline>
</glyph>
<glyph name="Lslash" format="1">
  <advance width="670"/>
  <unicode hex="0141"/>
  <outline>
    <contour>
      <point x="615" y="0" type="line"/>
      <point x="120" y="0" type="line"/>
      <point x="120" y="285" type="line"/>
      <point x="50" y="250" type="line"/>
      <point x="50" y="339" type="line"/>
      <point x="120" y="374" type="line"/>
      <point x="120" y="720" type="line"/>
      <point x="208" y="720" type="line"/>
      <point x="208" y="418" type="line"/>
      <point x="370" y="499" type="line"/>
      <point x="370" y="410" type="line"/>
      <point x="208" y="329" type="line"/>
      <point x="208" y="85" type="line"/>
      <point x="615" y="85" type="line"/>
    </contour>
  </outline>
</glyph>
<glyph name="lslash" format="1">
  <advance width="290"/>
  <unicode hex="0142"/>
  <outline>
    <contour>
      <point x="250" y="355" type="line"/>
      <point x="188" y="324" type="line"/>
      <point x="188" y="0" type="line"/>
      <point x="103" y="0" type="line"/>
      <point x="103" y="281" type="line"/>
      <point x="40" y="250" type="line"/>
      <point x="40" y="339" type="line"/>
      <point x="103" y="370" type="line"/>
      <point x="103" y="720" type="line"/>
      <point x="188" y="720" type="line"/>
      <point x="188" y="413" type="line"/>
      <point x="250" y="444" type="line"/>
    </contour>
  </outline>
</glyph>
<glyph name="OE" format="1">
  <advance width="1268"/>
  <unicode hex="0152"/>
  <outline>
    <contour>
      <point x="1175" y="73" type="line"/>
      <point x="1088" y="16"/>
      <point x="988" y="-10"/>
      <point x="890" y="-10" type="curve" smooth="yes"/>
      <point x="802" y="-10"/>
      <point x="715" y="19"/>
      <point x="655" y="55" type="curve"/>
      <point x="584" y="13"/>
      <point x="509" y="-10"/>
      <point x="400" y="-10" type="curve" smooth="yes"/>
      <point x="279" y="-10"/>
      <point x="185" y="24"/>
      <point x="95" y="92" type="curve"/>
      <point x="95" y="629" type="line"/>
      <point x="183" y="696"/>
      <point x="276" y="730"/>
      <point x="400" y="730" type="curve" smooth="yes"/>
      <point x="509" y="730"/>
      <point x="584" y="707"/>
      <point x="655" y="664" type="curve"/>
      <point x="715" y="701"/>
      <point x="802" y="730"/>
      <point x="890" y="730" type="curve" smooth="yes"/>
      <point x="987" y="730"/>
      <point x="1086" y="706"/>
      <point x="1175" y="647" type="curve"/>
      <point x="1175" y="505" type="line"/>
      <point x="1085" y="505" type="line"/>
      <point x="1085" y="592" type="line"/>
      <point x="1028" y="626"/>
      <point x="965" y="644"/>
      <point x="890" y="644" type="curve" smooth="yes"/>
      <point x="815" y="644"/>
      <point x="755" y="622"/>
      <point x="705" y="590" type="curve"/>
      <point x="705" y="414" type="line"/>
      <point x="1010" y="414" type="line"/>
      <point x="1010" y="330" type="line"/>
      <point x="705" y="330" type="line"/>
      <point x="705" y="130" type="line"/>
      <point x="755" y="98"/>
      <point x="815" y="76"/>
      <point x="890" y="76" type="curve" smooth="yes"/>
      <point x="963" y="76"/>
      <point x="1025" y="92"/>
      <point x="1085" y="129" type="curve"/>
      <point x="1085" y="215" type="line"/>
      <point x="1175" y="215" type="line"/>
    </contour>
    <contour>
      <point x="615" y="135" type="curve"/>
      <point x="615" y="584" type="line"/>
      <point x="558" y="621"/>
      <point x="492" y="644"/>
      <point x="400" y="644" type="curve" smooth="yes"/>
      <point x="311" y="644"/>
      <point x="245" y="620"/>
      <point x="185" y="578" type="curve"/>
      <point x="185" y="142" type="line"/>
      <point x="243" y="101"/>
      <point x="309" y="76"/>
      <point x="400" y="76" type="curve" smooth="yes"/>
      <point x="492" y="76"/>
      <point x="558" y="99"/>
    </contour>
  </outline>
</glyph>
<glyph name="oe" format="1">
  <advance width="860"/>
  <unicode hex="0153"/>
  <outline>
    <contour>
      <point x="788" y="59" type="line"/>
      <point x="735" y="13"/>
      <point x="669" y="-10"/>
      <point x="593" y="-10" type="curve" smooth="yes"/>
      <point x="535" y="-10"/>
      <point x="482" y="4"/>
      <point x="435" y="36" type="curve"/>
      <point x="397" y="10"/>
      <point x="346" y="-10"/>
      <point x="278" y="-10" type="curve" smooth="yes"/>
      <point x="181" y="-10"/>
      <point x="115" y="24"/>
      <point x="73" y="69" type="curve"/>
      <point x="73" y="412" type="line"/>
      <point x="113" y="454"/>
      <point x="178" y="490"/>
      <point x="278" y="490" type="curve" smooth="yes"/>
      <point x="346" y="490"/>
      <point x="398" y="470"/>
      <point x="438" y="443" type="curve"/>
      <point x="480" y="473"/>
      <point x="531" y="490"/>
      <point x="592" y="490" type="curve" smooth="yes"/>
      <point x="672" y="490"/>
      <point x="737" y="464"/>
      <point x="787" y="416" type="curve"/>
      <point x="787" y="205" type="line"/>
      <point x="479" y="205" type="line"/>
      <point x="479" y="99" type="line"/>
      <point x="510" y="76"/>
      <point x="550" y="68"/>
      <point x="593" y="67" type="curve" smooth="yes"/>
      <point x="634" y="67"/>
      <point x="670" y="74"/>
      <point x="703" y="99" type="curve"/>
      <point x="703" y="155" type="line"/>
      <point x="788" y="155" type="line"/>
    </contour>
    <contour>
      <point x="704" y="276" type="line"/>
      <point x="704" y="377" type="line"/>
      <point x="676" y="399"/>
      <point x="641" y="413"/>
      <point x="592" y="413" type="curve" smooth="yes"/>
      <point x="545" y="413"/>
      <point x="510" y="401"/>
      <point x="479" y="377" type="curve"/>
      <point x="479" y="276" type="line"/>
    </contour>
    <contour>
      <point x="398" y="110" type="curve"/>
      <point x="398" y="371" type="line"/>
      <point x="372" y="395"/>
      <point x="337" y="413"/>
      <point x="278" y="413" type="curve" smooth="yes"/>
      <point x="221" y="413"/>
      <point x="185" y="396"/>
      <point x="158" y="371" type="curve"/>
      <point x="158" y="110" type="line"/>
      <point x="183" y="87"/>
      <point x="218" y="67"/>
      <point x="278" y="67" type="curve" smooth="yes"/>
      <point x="335" y="67"/>
      <point x="370" y="85"/>
    </contour>
  </outline>
</glyph>
<glyph name="florin" format="1">
  <advance width="395"/>
  <unicode hex="0192"/>
  <outline>
    <contour>
      <point x="346" y="645" type="line"/>
      <point x="296" y="645" type="line" smooth="yes"/>
      <point x="266" y="645"/>
      <point x="238" y="632"/>
      <point x="221" y="611" type="curve"/>
      <point x="221" y="480" type="line"/>
      <point x="336" y="480" type="line"/>
      <point x="336" y="403" type="line"/>
      <point x="221" y="403" type="line"/>
      <point x="221" y="-99" type="line"/>
      <point x="181" y="-155"/>
      <point x="123" y="-180"/>
      <point x="61" y="-180" type="curve" smooth="yes"/>
      <point x="11" y="-180" type="line"/>
      <point x="11" y="-100" type="line"/>
      <point x="61" y="-100" type="line" smooth="yes"/>
      <point x="91" y="-100"/>
      <point x="119" y="-87"/>
      <point x="136" y="-66" type="curve"/>
      <point x="136" y="403" type="line"/>
      <point x="62" y="403" type="line"/>
      <point x="62" y="480" type="line"/>
      <point x="136" y="480" type="line"/>
      <point x="136" y="644" type="line"/>
      <point x="176" y="700"/>
      <point x="234" y="725"/>
      <point x="296" y="725" type="curve" smooth="yes"/>
      <point x="346" y="725" type="line"/>
    </contour>
  </outline>
</glyph>
<glyph name="circumflex" format="1">
  <advance width="500"/>
  <unicode hex="02C6"/>
  <outline>
    <contour>
      <point x="430" y="555" type="line"/>
      <point x="332" y="555" type="line"/>
      <point x="250" y="663" type="line"/>
      <point x="168" y="555" type="line"/>
      <point x="70" y="555" type="line"/>
      <point x="195" y="720" type="line"/>
      <point x="306" y="720" type="line"/>
    </contour>
  </outline>
</glyph>
<glyph name="caron" format="1">
  <advance width="500"/>
  <unicode hex="02C7"/>
  <outline>
    <contour>
      <point x="430" y="720" type="line"/>
      <point x="306" y="555" type="line"/>
      <point x="195" y="555" type="line"/>
      <point x="70" y="720" type="line"/>
      <point x="168" y="720" type="line"/>
      <point x="250" y="612" type="line"/>
      <point x="332" y="720" type="line"/>
    </contour>
  </outline>
</glyph>
<glyph name="breve" format="1">
  <advance width="500"/>
  <unicode hex="02D8"/>
  <outline>
    <contour>
      <point x="414" y="620" type="line"/>
      <point x="376" y="577"/>
      <point x="315" y="555"/>
      <point x="250" y="555" type="curve" smooth="yes"/>
      <point x="185" y="555"/>
      <point x="124" y="577"/>
      <point x="86" y="620" type="curve"/>
      <point x="86" y="720" type="line"/>
      <point x="164" y="720" type="line"/>
      <point x="164" y="647" type="line"/>
      <point x="186" y="630"/>
      <point x="214" y="621"/>
      <point x="250" y="621" type="curve" smooth="yes"/>
      <point x="286" y="621"/>
      <point x="314" y="630"/>
      <point x="336" y="647" type="curve"/>
      <point x="336" y="720" type="line"/>
      <point x="414" y="720" type="line"/>
    </contour>
  </outline>
</glyph>
<glyph name="ring" format="1">
  <advance width="500"/>
  <unicode hex="02DA"/>
  <outline>
    <contour>
      <point x="398" y="600" type="line"/>
      <point x="363" y="571"/>
      <point x="308" y="555"/>
      <point x="250" y="555" type="curve" smooth="yes"/>
      <point x="192" y="555"/>
      <point x="137" y="571"/>
      <point x="102" y="600" type="curve"/>
      <point x="102" y="680" type="line"/>
      <point x="137" y="709"/>
      <point x="192" y="725"/>
      <point x="250" y="725" type="curve" smooth="yes"/>
      <point x="308" y="725"/>
      <point x="363" y="709"/>
      <point x="398" y="680" type="curve"/>
    </contour>
    <contour>
      <point x="338" y="623" type="curve"/>
      <point x="338" y="657" type="line"/>
      <point x="317" y="670"/>
      <point x="284" y="676"/>
      <point x="250" y="676" type="curve" smooth="yes"/>
      <point x="216" y="676"/>
      <point x="183" y="670"/>
      <point x="162" y="657" type="curve"/>
      <point x="162" y="623" type="line"/>
      <point x="183" y="610"/>
      <point x="216" y="604"/>
      <point x="250" y="604" type="curve" smooth="yes"/>
      <point x="284" y="604"/>
      <point x="317" y="610"/>
    </contour>
  </outline>
</glyph>
<glyph name="ogonek" format="1">
  <advance width="500"/>
  <unicode hex="02DB"/>
  <outline>
    <contour>
      <point x="368" y="-160" type="line"/>
      <point x="358" y="-160" type="line" smooth="yes"/>
      <point x="301" y="-160"/>
      <point x="243" y="-147"/>
      <point x="208" y="-99" type="curve"/>
      <point x="208" y="10" type="line"/>
      <point x="287" y="10" type="line"/>
      <point x="287" y="-64" type="line"/>
      <point x="302" y="-81"/>
      <point x="328" y="-86"/>
      <point x="358" y="-86" type="curve" smooth="yes"/>
      <point x="368" y="-86" type="line"/>
    </contour>
  </outline>
</glyph>
<glyph name="tilde" format="1">
  <advance width="500"/>
  <unicode hex="02DC"/>
  <outline>
    <contour>
      <point x="440" y="720" type="line"/>
      <point x="358" y="555" type="line"/>
      <point x="273" y="555" type="line"/>
      <point x="191" y="657" type="line"/>
      <point x="140" y="555" type="line"/>
      <point x="60" y="555" type="line"/>
      <point x="142" y="720" type="line"/>
      <point x="227" y="720" type="line"/>
      <point x="309" y="618" type="line"/>
      <point x="360" y="720" type="line"/>
    </contour>
  </outline>
</glyph>
<glyph name="hungarumlaut" format="1">
  <advance width="500"/>
  <unicode hex="02DD"/>
  <outline>
    <contour>
      <point x="456" y="720" type="line"/>
      <point x="335" y="555" type="line"/>
      <point x="234" y="555" type="line"/>
      <point x="345" y="720" type="line"/>
    </contour>
    <contour>
      <point x="266" y="720" type="line"/>
      <point x="145" y="555" type="line"/>
      <point x="44" y="555" type="line"/>
      <point x="155" y="720" type="line"/>
    </contour>
  </outline>
</glyph>
<glyph name="endash" format="1">
  <advance width="600"/>
  <unicode hex="2013"/>
  <outline>
    <contour>
      <point x="550" y="253" type="line"/>
      <point x="50" y="253" type="line"/>
      <point x="50" y="339" type="line"/>
      <point x="550" y="339" type="line"/>
    </contour>
  </outline>
</glyph>
<glyph name="emdash" format="1">
  <advance width="800"/>
  <unicode hex="2014"/>
  <outline>
    <contour>
      <point x="750" y="253" type="line"/>
      <point x="50" y="253" type="line"/>
      <point x="50" y="339" type="line"/>
      <point x="750" y="339" type="line"/>
    </contour>
  </outline>
</glyph>
<glyph name="quoteleft" format="1">
  <advance width="255"/>
  <unicode hex="2018"/>
  <unicode hex="02BB"/>
  <outline>
    <contour>
      <point x="194" y="480" type="line"/>
      <point x="103" y="480" type="line"/>
      <point x="61" y="720" type="line"/>
      <point x="152" y="720" type="line"/>
    </contour>
  </outline>
</glyph>
<glyph name="quoteright" format="1">
  <advance width="255"/>
  <unicode hex="2019"/>
  <unicode hex="02BC"/>
  <outline>
    <contour>
      <point x="195" y="720" type="line"/>
      <point x="151" y="480" type="line"/>
      <point x="60" y="480" type="line"/>
      <point x="104" y="720" type="line"/>
    </contour>
  </outline>
</glyph>
<glyph name="quotesinglbase" format="1">
  <advance width="257"/>
  <unicode hex="201A"/>
  <outline>
    <contour>
      <point x="184" y="110" type="line"/>
      <point x="140" y="-130" type="line"/>
      <point x="49" y="-130" type="line"/>
      <point x="93" y="110" type="line"/>
    </contour>
  </outline>
</glyph>
<glyph name="quotedblleft" format="1">
  <advance width="500"/>
  <unicode hex="201C"/>
  <outline>
    <contour>
      <point x="439" y="480" type="line"/>
      <point x="348" y="480" type="line"/>
      <point x="306" y="720" type="line"/>
      <point x="397" y="720" type="line"/>
    </contour>
    <contour>
      <point x="194" y="480" type="line"/>
      <point x="103" y="480" type="line"/>
      <point x="61" y="720" type="line"/>
      <point x="152" y="720" type="line"/>
    </contour>
  </outline>
</glyph>
<glyph name="quotedblright" format="1">
  <advance width="500"/>
  <unicode hex="201D"/>
  <outline>
    <contour>
      <point x="439" y="720" type="line"/>
      <point x="397" y="480" type="line"/>
      <point x="306" y="480" type="line"/>
      <point x="348" y="720" type="line"/>
    </contour>
    <contour>
      <point x="194" y="720" type="line"/>
      <point x="152" y="480" type="line"/>
      <point x="61" y="480" type="line"/>
      <point x="103" y="720" type="line"/>
    </contour>
  </outline>
</glyph>
<glyph name="quotedblbase" format="1">
  <advance width="501"/>
  <unicode hex="201E"/>
  <outline>
    <contour>
      <point x="428" y="110" type="line"/>
      <point x="386" y="-130" type="line"/>
      <point x="295" y="-130" type="line"/>
      <point x="337" y="110" type="line"/>
    </contour>
    <contour>
      <point x="183" y="110" type="line"/>
      <point x="141" y="-130" type="line"/>
      <point x="50" y="-130" type="line"/>
      <point x="92" y="110" type="line"/>
    </contour>
  </outline>
</glyph>
<glyph name="dagger" format="1">
  <advance width="515"/>
  <unicode hex="2020"/>
  <outline>
    <contour>
      <point x="475" y="401" type="line"/>
      <point x="301" y="401" type="line"/>
      <point x="301" y="0" type="line"/>
      <point x="214" y="0" type="line"/>
      <point x="214" y="401" type="line"/>
      <point x="40" y="401" type="line"/>
      <point x="40" y="480" type="line"/>
      <point x="214" y="480" type="line"/>
      <point x="214" y="720" type="line"/>
      <point x="301" y="720" type="line"/>
      <point x="301" y="480" type="line"/>
      <point x="475" y="480" type="line"/>
    </contour>
  </outline>
</glyph>
<glyph name="daggerdbl" format="1">
  <advance width="515"/>
  <unicode hex="2021"/>
  <outline>
    <contour>
      <point x="475" y="216" type="line"/>
      <point x="300" y="216" type="line"/>
      <point x="300" y="0" type="line"/>
      <point x="215" y="0" type="line"/>
      <point x="215" y="216" type="line"/>
      <point x="40" y="216" type="line"/>
      <point x="40" y="293" type="line"/>
      <point x="215" y="293" type="line"/>
      <point x="215" y="403" type="line"/>
      <point x="40" y="403" type="line"/>
      <point x="40" y="480" type="line"/>
      <point x="215" y="480" type="line"/>
      <point x="215" y="720" type="line"/>
      <point x="300" y="720" type="line"/>
      <point x="300" y="480" type="line"/>
      <point x="475" y="480" type="line"/>
      <point x="475" y="403" type="line"/>
      <point x="300" y="403" type="line"/>
      <point x="300" y="293" type="line"/>
      <point x="475" y="293" type="line"/>
    </contour>
  </outline>
</glyph>
<glyph name="bullet" format="1">
  <advance width="575"/>
  <unicode hex="2022"/>
  <outline>
    <contour>
      <point x="448" y="263" type="line"/>
      <point x="407" y="222"/>
      <point x="347" y="203"/>
      <point x="288" y="203" type="curve" smooth="yes"/>
      <point x="229" y="203"/>
      <point x="169" y="222"/>
      <point x="128" y="263" type="curve"/>
      <point x="128" y="484" type="line"/>
      <point x="169" y="525"/>
      <point x="229" y="544"/>
      <point x="288" y="544" type="curve" smooth="yes"/>
      <point x="347" y="544"/>
      <point x="407" y="525"/>
      <point x="448" y="484" type="curve"/>
    </contour>
  </outline>
</glyph>
<glyph name="ellipsis" format="1">
  <advance width="765"/>
  <unicode hex="2026"/>
  <outline>
    <contour>
      <point x="685" y="0" type="line"/>
      <point x="590" y="0" type="line"/>
      <point x="590" y="110" type="line"/>
      <point x="685" y="110" type="line"/>
    </contour>
    <contour>
      <point x="430" y="0" type="line"/>
      <point x="335" y="0" type="line"/>
      <point x="335" y="110" type="line"/>
      <point x="430" y="110" type="line"/>
    </contour>
    <contour>
      <point x="175" y="0" type="line"/>
      <point x="80" y="0" type="line"/>
      <point x="80" y="110" type="line"/>
      <point x="175" y="110" type="line"/>
    </contour>
  </outline>
</glyph>
<glyph name="perthousand" format="1">
  <advance width="1648"/>
  <unicode hex="2030"/>
  <outline>
    <contour>
      <point x="1565" y="77" type="line"/>
      <point x="1522" y="25"/>
      <point x="1449" y="-10"/>
      <point x="1370" y="-10" type="curve" smooth="yes"/>
      <point x="1290" y="-10"/>
      <point x="1217" y="25"/>
      <point x="1175" y="77" type="curve"/>
      <point x="1175" y="324" type="line"/>
      <point x="1217" y="375"/>
      <point x="1290" y="410"/>
      <point x="1370" y="410" type="curve" smooth="yes"/>
      <point x="1449" y="410"/>
      <point x="1522" y="375"/>
      <point x="1565" y="324" type="curve"/>
    </contour>
    <contour>
      <point x="1083" y="77" type="line"/>
      <point x="1040" y="25"/>
      <point x="967" y="-10"/>
      <point x="888" y="-10" type="curve" smooth="yes"/>
      <point x="808" y="-10"/>
      <point x="735" y="25"/>
      <point x="693" y="77" type="curve"/>
      <point x="693" y="324" type="line"/>
      <point x="735" y="375"/>
      <point x="808" y="410"/>
      <point x="888" y="410" type="curve" smooth="yes"/>
      <point x="967" y="410"/>
      <point x="1040" y="375"/>
      <point x="1083" y="324" type="curve"/>
    </contour>
    <contour>
      <point x="826" y="720" type="line"/>
      <point x="430" y="0" type="line"/>
      <point x="339" y="0" type="line"/>
      <point x="736" y="720" type="line"/>
    </contour>
    <contour>
      <point x="473" y="397" type="line"/>
      <point x="430" y="345"/>
      <point x="357" y="310"/>
      <point x="278" y="310" type="curve" smooth="yes"/>
      <point x="198" y="310"/>
      <point x="125" y="345"/>
      <point x="83" y="397" type="curve"/>
      <point x="83" y="644" type="line"/>
      <point x="125" y="695"/>
      <point x="198" y="730"/>
      <point x="278" y="730" type="curve" smooth="yes"/>
      <point x="357" y="730"/>
      <point x="430" y="695"/>
      <point x="473" y="644" type="curve"/>
    </contour>
    <contour>
      <point x="1483" y="108" type="curve"/>
      <point x="1483" y="292" type="line"/>
      <point x="1454" y="322"/>
      <point x="1418" y="335"/>
      <point x="1370" y="335" type="curve" smooth="yes"/>
      <point x="1322" y="335"/>
      <point x="1286" y="322"/>
      <point x="1256" y="292" type="curve"/>
      <point x="1256" y="108" type="line"/>
      <point x="1286" y="79"/>
      <point x="1322" y="66"/>
      <point x="1370" y="66" type="curve" smooth="yes"/>
      <point x="1418" y="66"/>
      <point x="1454" y="79"/>
    </contour>
    <contour>
      <point x="1001" y="108" type="curve"/>
      <point x="1001" y="292" type="line"/>
      <point x="972" y="322"/>
      <point x="936" y="335"/>
      <point x="888" y="335" type="curve" smooth="yes"/>
      <point x="840" y="335"/>
      <point x="804" y="322"/>
      <point x="774" y="292" type="curve"/>
      <point x="774" y="108" type="line"/>
      <point x="804" y="79"/>
      <point x="840" y="66"/>
      <point x="888" y="66" type="curve" smooth="yes"/>
      <point x="936" y="66"/>
      <point x="972" y="79"/>
    </contour>
    <contour>
      <point x="391" y="428" type="curve"/>
      <point x="391" y="612" type="line"/>
      <point x="362" y="642"/>
      <point x="326" y="655"/>
      <point x="278" y="655" type="curve" smooth="yes"/>
      <point x="230" y="655"/>
      <point x="194" y="642"/>
      <point x="164" y="612" type="curve"/>
      <point x="164" y="428" type="line"/>
      <point x="194" y="399"/>
      <point x="230" y="386"/>
      <point x="278" y="386" type="curve" smooth="yes"/>
      <point x="326" y="386"/>
      <point x="362" y="399"/>
    </contour>
  </outline>
</glyph>
<glyph name="guilsinglleft" format="1">
  <advance width="355"/>
  <unicode hex="2039"/>
  <outline>
    <contour>
      <point x="285" y="-10" type="line"/>
      <point x="55" y="203" type="line"/>
      <point x="55" y="278" type="line"/>
      <point x="285" y="490" type="line"/>
      <point x="285" y="378" type="line"/>
      <point x="129" y="240" type="line"/>
      <point x="285" y="103" type="line"/>
    </contour>
  </outline>
</glyph>
<glyph name="guilsinglright" format="1">
  <advance width="355"/>
  <unicode hex="203A"/>
  <outline>
    <contour>
      <point x="300" y="203" type="line"/>
      <point x="70" y="-10" type="line"/>
      <point x="70" y="103" type="line"/>
      <point x="226" y="240" type="line"/>
      <point x="70" y="378" type="line"/>
      <point x="70" y="490" type="line"/>
      <point x="300" y="278" type="line"/>
    </contour>
  </outline>
</glyph>
<glyph name="fraction" format="1">
  <advance width="500"/>
  <unicode hex="2044"/>
  <unicode hex="2215"/>
  <outline>
    <contour>
      <point x="484" y="720" type="line"/>
      <point x="109" y="0" type="line"/>
      <point x="16" y="0" type="line"/>
      <point x="391" y="720" type="line"/>
    </contour>
  </outline>
</glyph>
<glyph name="Euro" format="1">
  <advance width="776"/>
  <unicode hex="20AC"/>
  <outline>
    <contour>
      <point x="210" y="402" type="line"/>
      <point x="210" y="318" type="line"/>
      <point x="430" y="318" type="line"/>
      <point x="430" y="240" type="line"/>
      <point x="210" y="240" type="line"/>
      <point x="210" y="142" type="line"/>
      <point x="257" y="101"/>
      <point x="320" y="76"/>
      <point x="407" y="76" type="curve" smooth="yes"/>
      <point x="494" y="76"/>
      <point x="558" y="101"/>
      <point x="604" y="142" type="curve"/>
      <point x="604" y="215" type="line"/>
      <point x="694" y="215" type="line"/>
      <point x="694" y="100" type="line"/>
      <point x="621" y="29"/>
      <point x="511" y="-10"/>
      <point x="407" y="-10" type="curve" smooth="yes"/>
      <point x="304" y="-10"/>
      <point x="194" y="29"/>
      <point x="120" y="100" type="curve"/>
      <point x="120" y="240" type="line"/>
      <point x="40" y="240" type="line"/>
      <point x="40" y="318" type="line"/>
      <point x="120" y="318" type="line"/>
      <point x="120" y="402" type="line"/>
      <point x="40" y="402" type="line"/>
      <point x="40" y="480" type="line"/>
      <point x="120" y="480" type="line"/>
      <point x="120" y="621" type="line"/>
      <point x="194" y="690"/>
      <point x="304" y="730"/>
      <point x="407" y="730" type="curve" smooth="yes"/>
      <point x="511" y="730"/>
      <point x="621" y="690"/>
      <point x="694" y="621" type="curve"/>
      <point x="694" y="505" type="line"/>
      <point x="604" y="505" type="line"/>
      <point x="604" y="578" type="line"/>
      <point x="558" y="620"/>
      <point x="494" y="644"/>
      <point x="407" y="644" type="curve" smooth="yes"/>
      <point x="320" y="644"/>
      <point x="257" y="620"/>
      <point x="210" y="578" type="curve"/>
      <point x="210" y="480" type="line"/>
      <point x="430" y="480" type="line"/>
      <point x="430" y="402" type="line"/>
    </contour>
  </outline>
</glyph>
<glyph name="uni2117" format="1">
  <advance width="860"/>
  <unicode hex="2117"/>
  <outline>
    <contour>
      <point x="765" y="103" type="line"/>
      <point x="676" y="27"/>
      <point x="561" y="-10"/>
      <point x="430" y="-10" type="curve" smooth="yes"/>
      <point x="296" y="-10"/>
      <point x="183" y="28"/>
      <point x="95" y="103" type="curve"/>
      <point x="95" y="617" type="line"/>
      <point x="183" y="692"/>
      <point x="296" y="730"/>
      <point x="430" y="730" type="curve" smooth="yes"/>
      <point x="561" y="730"/>
      <point x="676" y="693"/>
      <point x="765" y="617" type="curve"/>
    </contour>
    <contour>
      <point x="695" y="137" type="curve"/>
      <point x="695" y="583" type="line"/>
      <point x="629" y="635"/>
      <point x="536" y="664"/>
      <point x="430" y="664" type="curve" smooth="yes"/>
      <point x="327" y="664"/>
      <point x="233" y="637"/>
      <point x="165" y="583" type="curve"/>
      <point x="165" y="137" type="line"/>
      <point x="233" y="83"/>
      <point x="327" y="56"/>
      <point x="430" y="56" type="curve" smooth="yes"/>
      <point x="536" y="56"/>
      <point x="629" y="85"/>
    </contour>
    <contour>
      <point x="591" y="374" type="line"/>
      <point x="552" y="329"/>
      <point x="513" y="303"/>
      <point x="422" y="303" type="curve" smooth="yes"/>
      <point x="354" y="303" type="line"/>
      <point x="354" y="155" type="line"/>
      <point x="295" y="155" type="line"/>
      <point x="295" y="561" type="line"/>
      <point x="422" y="561" type="line" smooth="yes"/>
      <point x="513" y="561"/>
      <point x="552" y="537"/>
      <point x="591" y="491" type="curve"/>
    </contour>
    <contour>
      <point x="533" y="400" type="curve"/>
      <point x="533" y="465" type="line"/>
      <point x="509" y="492"/>
      <point x="480" y="503"/>
      <point x="422" y="503" type="curve" smooth="yes"/>
      <point x="354" y="503" type="line"/>
      <point x="354" y="361" type="line"/>
      <point x="422" y="361" type="line" smooth="yes"/>
      <point x="478" y="361"/>
      <point x="507" y="372"/>
    </contour>
  </outline>
</glyph>
<glyph name="trademark" format="1">
  <advance width="900"/>
  <unicode hex="2122"/>
  <outline>
    <contour>
      <point x="847" y="311" type="line"/>
      <point x="783" y="311" type="line"/>
      <point x="783" y="625" type="line"/>
      <point x="753" y="646"/>
      <point x="711" y="659"/>
      <point x="663" y="664" type="curve"/>
      <point x="663" y="311" type="line"/>
      <point x="599" y="311" type="line"/>
      <point x="599" y="664" type="line"/>
      <point x="552" y="660"/>
      <point x="510" y="646"/>
      <point x="479" y="624" type="curve"/>
      <point x="479" y="311" type="line"/>
      <point x="415" y="311" type="line"/>
      <point x="415" y="658" type="line"/>
      <point x="475" y="704"/>
      <point x="548" y="726"/>
      <point x="631" y="726" type="curve" smooth="yes"/>
      <point x="714" y="726"/>
      <point x="787" y="704"/>
      <point x="847" y="658" type="curve"/>
    </contour>
    <contour>
      <point x="352" y="660" type="line"/>
      <point x="216" y="660" type="line"/>
      <point x="216" y="311" type="line"/>
      <point x="152" y="311" type="line"/>
      <point x="152" y="660" type="line"/>
      <point x="16" y="660" type="line"/>
      <point x="16" y="720" type="line"/>
      <point x="352" y="720" type="line"/>
    </contour>
  </outline>
</glyph>
<glyph name="radical" format="1">
  <advance width="600"/>
  <unicode hex="221A"/>
  <outline>
    <contour>
      <point x="545" y="720" type="line"/>
      <point x="317" y="0" type="line"/>
      <point x="229" y="0" type="line"/>
      <point x="55" y="311" type="line"/>
      <point x="149" y="311" type="line"/>
      <point x="266" y="93" type="line"/>
      <point x="459" y="720" type="line"/>
    </contour>
  </outline>
</glyph>
<glyph name="apple" format="1">
  <advance width="820"/>
  <unicode hex="F8FF"/>
  <outline>
    <contour>
      <point x="725" y="505" type="line"/>
      <point x="635" y="505" type="line"/>
      <point x="635" y="572" type="line"/>
      <point x="577" y="617"/>
      <point x="502" y="644"/>
      <point x="410" y="644" type="curve" smooth="yes"/>
      <point x="320" y="644"/>
      <point x="245" y="618"/>
      <point x="185" y="572" type="curve"/>
      <point x="185" y="505" type="line"/>
      <point x="95" y="505" type="line"/>
      <point x="95" y="616" type="line"/>
      <point x="182" y="691"/>
      <point x="287" y="730"/>
      <point x="410" y="730" type="curve" smooth="yes"/>
      <point x="530" y="730"/>
      <point x="637" y="692"/>
      <point x="725" y="616" type="curve"/>
    </contour>
    <contour>
      <point x="560" y="318" type="line"/>
      <point x="453" y="318" type="line"/>
      <point x="453" y="210" type="line"/>
      <point x="368" y="210" type="line"/>
      <point x="368" y="318" type="line"/>
      <point x="260" y="318" type="line"/>
      <point x="260" y="403" type="line"/>
      <point x="368" y="403" type="line"/>
      <point x="368" y="510" type="line"/>
      <point x="453" y="510" type="line"/>
      <point x="453" y="403" type="line"/>
      <point x="560" y="403" type="line"/>
    </contour>
    <contour>
      <point x="725" y="104" type="line"/>
      <point x="637" y="28"/>
      <point x="530" y="-10"/>
      <point x="410" y="-10" type="curve" smooth="yes"/>
      <point x="287" y="-10"/>
      <point x="182" y="29"/>
      <point x="95" y="104" type="curve"/>
      <point x="95" y="215" type="line"/>
      <point x="185" y="215" type="line"/>
      <point x="185" y="148" type="line"/>
      <point x="245" y="102"/>
      <point x="320" y="76"/>
      <point x="410" y="76" type="curve" smooth="yes"/>
      <point x="502" y="76"/>
      <point x="577" y="103"/>
      <point x="635" y="148" type="curve"/>
      <point x="635" y="215" type="line"/>
      <point x="725" y="215" type="line"/>
    </contour>
  </outline>
</glyph>
<glyph name="registered" format="1">
  <advance width="860"/>
  <outline>
    <contour>
      <point x="765" y="103" type="line"/>
      <point x="676" y="27"/>
      <point x="561" y="-10"/>
      <point x="430" y="-10" type="curve" smooth="yes"/>
      <point x="296" y="-10"/>
      <point x="183" y="28"/>
      <point x="95" y="103" type="curve"/>
      <point x="95" y="617" type="line"/>
      <point x="183" y="692"/>
      <point x="296" y="730"/>
      <point x="430" y="730" type="curve" smooth="yes"/>
      <point x="561" y="730"/>
      <point x="676" y="693"/>
      <point x="765" y="617" type="curve"/>
    </contour>
    <contour>
      <point x="695" y="137" type="curve"/>
      <point x="695" y="583" type="line"/>
      <point x="629" y="635"/>
      <point x="536" y="664"/>
      <point x="430" y="664" type="curve" smooth="yes"/>
      <point x="327" y="664"/>
      <point x="233" y="637"/>
      <point x="165" y="583" type="curve"/>
      <point x="165" y="137" type="line"/>
      <point x="233" y="83"/>
      <point x="327" y="56"/>
      <point x="430" y="56" type="curve" smooth="yes"/>
      <point x="536" y="56"/>
      <point x="629" y="85"/>
    </contour>
    <contour>
      <point x="587" y="158" type="line"/>
      <point x="528" y="158" type="line"/>
      <point x="528" y="286" type="line"/>
      <point x="503" y="311"/>
      <point x="469" y="322"/>
      <point x="415" y="322" type="curve" smooth="yes"/>
      <point x="333" y="322" type="line"/>
      <point x="333" y="158" type="line"/>
      <point x="273" y="158" type="line"/>
      <point x="273" y="564" type="line"/>
      <point x="420" y="564" type="line" smooth="yes"/>
      <point x="511" y="564"/>
      <point x="547" y="545"/>
      <point x="586" y="499" type="curve"/>
      <point x="586" y="384" type="line"/>
      <point x="568" y="368"/>
      <point x="549" y="357"/>
      <point x="526" y="349" type="curve"/>
      <point x="550" y="341"/>
      <point x="573" y="326"/>
      <point x="587" y="312" type="curve"/>
    </contour>
    <contour>
      <point x="525" y="409" type="curve"/>
      <point x="525" y="474" type="line"/>
      <point x="501" y="501"/>
      <point x="476" y="507"/>
      <point x="420" y="507" type="curve" smooth="yes"/>
      <point x="333" y="507" type="line"/>
      <point x="333" y="375" type="line"/>
      <point x="417" y="375" type="line" smooth="yes"/>
      <point x="473" y="375"/>
      <point x="502" y="386"/>
    </contour>
  </outline>
</glyph>
